<?xml version="1.0" encoding="UTF-8"?>
<!DOCTYPE svg PUBLIC "-//W3C//DTD SVG 1.1//EN" "http://www.w3.org/Graphics/SVG/1.1/DTD/svg11.dtd">
<svg xmlns="http://www.w3.org/2000/svg" version="1.1" width="117px" height="92px" style="shape-rendering:geometricPrecision; text-rendering:geometricPrecision; image-rendering:optimizeQuality; fill-rule:evenodd; clip-rule:evenodd" xmlns:xlink="http://www.w3.org/1999/xlink">
<g><path style="opacity:1" fill="#f9faf9" d="M 27.5,-0.5 C 28.5,-0.5 29.5,-0.5 30.5,-0.5C 27.7715,3.27566 25.2715,7.27566 23,11.5C 17.3414,22.2575 20.1747,29.2575 31.5,32.5C 31.5382,21.7774 31.5382,10.7774 31.5,-0.5C 38.5,-0.5 45.5,-0.5 52.5,-0.5C 50.5594,4.71457 48.0594,9.71457 45,14.5C 41.0255,20.294 37.1922,26.1273 33.5,32C 34.7932,32.49 36.1266,32.6567 37.5,32.5C 38.4523,27.3563 40.9523,23.0229 45,19.5C 47.9478,23.7601 51.1145,27.7601 54.5,31.5C 60.9283,29.4799 67.2617,27.3133 73.5,25C 67.3674,16.5586 61.3674,8.05856 55.5,-0.5C 68.1667,-0.5 80.8333,-0.5 93.5,-0.5C 92.5915,5.47815 92.4248,11.4781 93,17.5C 95.1238,16.3783 96.9571,14.8783 98.5,13C 99.9437,12.2195 101.277,12.3861 102.5,13.5C 99.9945,16.6755 96.8278,19.0088 93,20.5C 92.191,30.8804 92.3577,41.2137 93.5,51.5C 92.5,52.8333 91.5,52.8333 90.5,51.5C 85.4182,44.338 80.5848,37.0047 76,29.5C 70.0362,33.4906 63.5362,36.324 56.5,38C 61.3314,43.1763 64.998,49.0096 67.5,55.5C 52.9215,55.1763 38.4215,55.5096 24,56.5C 25.2539,51.1622 27.7539,46.3289 31.5,42C 23.436,42.049 16.6027,39.2157 11,33.5C 8.56753,26.1181 9.90087,19.4514 15,13.5C 19.0035,8.66456 23.1702,3.99789 27.5,-0.5 Z"/></g>
<g><path style="opacity:1" fill="#f9faf9" d="M 31.5,68.5 C 30.2921,69.2341 28.9587,69.5674 27.5,69.5C 27.5,72.1667 27.5,74.8333 27.5,77.5C 26.1667,77.5 24.8333,77.5 23.5,77.5C 23.5,74.8333 23.5,72.1667 23.5,69.5C 22.5,69.5 21.5,69.5 20.5,69.5C 20.5,72.1667 20.5,74.8333 20.5,77.5C 19.1667,77.5 17.8333,77.5 16.5,77.5C 16.6641,74.8127 16.4974,72.146 16,69.5C 15.3475,77.8912 11.6808,79.8912 5,75.5C 3.50536,77.1632 1.67202,78.1632 -0.5,78.5C -0.5,76.5 -0.5,74.5 -0.5,72.5C 0.864091,70.78 1.86409,68.78 2.5,66.5C 3.83333,65.1667 5.16667,65.1667 6.5,66.5C 9.85703,76.0967 11.1904,75.7633 10.5,65.5C 17.5,65.5 24.5,65.5 31.5,65.5C 31.5,66.5 31.5,67.5 31.5,68.5 Z"/></g>
<g><path style="opacity:1" fill="#f9faf9" d="M 31.5,68.5 C 32.404,67.791 32.7373,66.791 32.5,65.5C 36.5777,65.2604 38.7444,67.2604 39,71.5C 39.4955,69.5273 39.6621,67.5273 39.5,65.5C 41.1667,65.5 42.8333,65.5 44.5,65.5C 44.67,66.8221 44.3366,67.9887 43.5,69C 44.448,69.4828 45.448,69.6495 46.5,69.5C 46.5,68.1667 46.5,66.8333 46.5,65.5C 47.8333,65.5 49.1667,65.5 50.5,65.5C 50.5,69.5 50.5,73.5 50.5,77.5C 49.1667,77.5 47.8333,77.5 46.5,77.5C 46.5,75.8333 46.5,74.1667 46.5,72.5C 45.448,72.3505 44.448,72.5172 43.5,73C 44.8333,74.3333 44.8333,75.6667 43.5,77C 41.8988,77.2734 40.3988,77.7734 39,78.5C 37.6713,77.5061 36.338,76.5061 35,75.5C 33.4134,76.6699 31.7467,77.6699 30,78.5C 29.5658,75.0317 30.0658,71.6984 31.5,68.5 Z"/></g>
<g><path style="opacity:1" fill="#f9faf9" d="M 116.5,67.5 C 116.5,70.1667 116.5,72.8333 116.5,75.5C 112.682,79.6801 109.182,79.3468 106,74.5C 101.336,80.1551 97.3361,79.8218 94,73.5C 93.51,74.7932 93.3433,76.1266 93.5,77.5C 92.1667,77.5 90.8333,77.5 89.5,77.5C 89.6641,74.8127 89.4974,72.146 89,69.5C 89.0965,73.742 87.2632,76.742 83.5,78.5C 82.2011,77.91 81.3678,76.91 81,75.5C 78,79.5 75,79.5 72,75.5C 71.5172,76.448 71.3505,77.448 71.5,78.5C 68.4955,78.7499 66.6622,77.4166 66,74.5C 65.5172,75.448 65.3505,76.448 65.5,77.5C 63.549,77.7733 62.049,77.1066 61,75.5C 59.6646,77.6048 57.9979,78.2714 56,77.5C 55.7308,74.7202 56.8975,72.5536 59.5,71C 57.2542,69.7432 55.9209,67.9099 55.5,65.5C 57.7224,65.178 59.5557,65.8446 61,67.5C 62.6667,64.8333 64.3333,64.8333 66,67.5C 68.084,64.967 70.084,64.967 72,67.5C 78.7044,63.6873 82.3711,65.6873 83,73.5C 83.4974,70.854 83.6641,68.1873 83.5,65.5C 86.8333,65.5 90.1667,65.5 93.5,65.5C 93.3433,66.8734 93.51,68.2068 94,69.5C 97.4359,64.4907 101.436,64.1573 106,68.5C 109.172,64.9447 112.672,64.6113 116.5,67.5 Z M 69.5,68.5 C 70.6129,69.9464 70.7796,71.6131 70,73.5C 69.1667,72.6667 68.3333,71.8333 67.5,71C 68.3805,70.2917 69.0472,69.4584 69.5,68.5 Z M 76.5,68.5 C 79.148,70.1276 79.148,71.7943 76.5,73.5C 75.3336,71.8327 75.3336,70.166 76.5,68.5 Z M 98.5,68.5 C 101.93,69.2108 102.263,70.8774 99.5,73.5C 97.2957,72.218 96.9624,70.5514 98.5,68.5 Z M 110.5,68.5 C 112.561,69.7514 112.894,71.4181 111.5,73.5C 109.296,72.218 108.962,70.5514 110.5,68.5 Z"/></g>
<g><path style="opacity:1" fill="#f9faf9" d="M 49.5,91.5 C 44.5,91.5 39.5,91.5 34.5,91.5C 34.1667,88.8333 33.8333,88.8333 33.5,91.5C 31.8333,91.5 30.1667,91.5 28.5,91.5C 28.5,87.8333 28.5,84.1667 28.5,80.5C 29.8333,80.5 31.1667,80.5 32.5,80.5C 32.3262,85.0214 32.9929,85.3548 34.5,81.5C 38.2702,79.9755 41.7702,80.3088 45,82.5C 46.049,80.8934 47.549,80.2267 49.5,80.5C 49.5,84.1667 49.5,87.8333 49.5,91.5 Z"/></g>
<g><path style="opacity:1" fill="#f9faf9" d="M 59.5,91.5 C 58.1667,91.5 56.8333,91.5 55.5,91.5C 54.8333,82.1667 54.1667,82.1667 53.5,91.5C 52.5,91.5 51.5,91.5 50.5,91.5C 50.5,87.8333 50.5,84.1667 50.5,80.5C 53.5,80.5 56.5,80.5 59.5,80.5C 59.5,84.1667 59.5,87.8333 59.5,91.5 Z"/></g>
<g><path style="opacity:1" fill="#f9faf9" d="M 85.5,91.5 C 83.5,91.5 81.5,91.5 79.5,91.5C 79.1667,90.1667 78.8333,90.1667 78.5,91.5C 72.5,91.5 66.5,91.5 60.5,91.5C 60.5,87.8333 60.5,84.1667 60.5,80.5C 68.7909,80.9365 76.7909,81.1032 84.5,81C 85.5,81.5 86.5,82 87.5,82.5C 88.7001,84.107 88.2001,85.107 86,85.5C 84.5272,85.0969 83.1939,84.4303 82,83.5C 79.9674,88.3016 81.1341,89.3016 85.5,86.5C 86.91,86.8678 87.91,87.7011 88.5,89C 87.0577,89.3768 86.0577,90.2101 85.5,91.5 Z M 77.5,83.5 C 77.6602,85.1992 77.4935,86.8659 77,88.5C 75.0681,86.6068 75.2348,84.9402 77.5,83.5 Z"/></g>
</svg>
