<?xml version="1.0" encoding="UTF-8"?>
<!DOCTYPE svg PUBLIC "-//W3C//DTD SVG 1.1//EN" "http://www.w3.org/Graphics/SVG/1.1/DTD/svg11.dtd">
<svg xmlns="http://www.w3.org/2000/svg" version="1.1" width="1417px" height="1418px" style="shape-rendering:geometricPrecision; text-rendering:geometricPrecision; image-rendering:optimizeQuality; fill-rule:evenodd; clip-rule:evenodd" xmlns:xlink="http://www.w3.org/1999/xlink">
<g><path style="opacity:1" fill="#f95c00" d="M 342.5,465.5 C 385.157,461.091 420.324,475.091 448,507.5C 469.704,535.236 483.704,566.569 490,601.5C 501.257,666.523 493.59,729.19 467,789.5C 451.873,822.91 429.707,850.743 400.5,873C 361.3,900.737 319.634,905.071 275.5,886C 249.563,871.396 229.729,850.896 216,824.5C 207.999,809.163 201.665,793.163 197,776.5C 196.294,774.029 196.627,771.695 198,769.5C 236.5,700.333 275,631.167 313.5,562C 330.83,561.5 348.163,561.333 365.5,561.5C 360.618,622.034 355.285,682.534 349.5,743C 350.09,757.926 357.423,762.926 371.5,758C 376.036,754.138 378.869,749.305 380,743.5C 385.567,682.832 391.067,622.165 396.5,561.5C 407.5,561.5 418.5,561.5 429.5,561.5C 423.89,623.483 418.39,685.483 413,747.5C 411.415,770.354 401.581,788.521 383.5,802C 380.326,803.725 376.993,805.058 373.5,806C 343.988,812.512 325.488,801.346 318,772.5C 314.994,759.209 314.827,745.875 317.5,732.5C 302.557,732.528 287.89,732.528 273.5,732.5C 281.746,717.006 290.246,701.672 299,686.5C 306.858,686.153 314.525,685.153 322,683.5C 323.957,659.478 326.123,635.478 328.5,611.5C 328.167,610.5 327.833,609.5 327.5,608.5C 296.387,663.887 265.387,719.387 234.5,775C 245.21,803.036 263.21,825.036 288.5,841C 314.789,854.208 341.456,854.875 368.5,843C 397.457,828.71 419.957,807.544 436,779.5C 468.955,721.098 478.289,659.098 464,593.5C 456.6,561.168 440.433,534.335 415.5,513C 382.275,490.253 347.942,488.586 312.5,508C 278.986,530.158 254.819,559.991 240,597.5C 226.552,631.185 219.885,666.185 220,702.5C 211.354,719.125 202.188,735.458 192.5,751.5C 183.101,684.558 193.601,620.891 224,560.5C 240.883,528.619 264.383,502.785 294.5,483C 309.648,474.454 325.648,468.621 342.5,465.5 Z"/></g>
<g><path style="opacity:1" fill="#0019a1" d="M 1210.5,553.5 C 1218.11,552.93 1223.28,556.264 1226,563.5C 1226.67,568.833 1226.67,574.167 1226,579.5C 1221.37,590.716 1214.37,592.716 1205,585.5C 1198.17,573.169 1200,562.502 1210.5,553.5 Z M 1221.5,582.5 C 1215.29,589.501 1209.79,588.835 1205,580.5C 1202.6,573.203 1203.27,566.203 1207,559.5C 1213.93,554.583 1219.26,555.917 1223,563.5C 1225.34,570.194 1224.84,576.527 1221.5,582.5 Z M 1212.5,562.5 C 1213.5,562.5 1214.5,562.5 1215.5,562.5C 1215.5,565.167 1215.5,567.833 1215.5,570.5C 1214.5,570.5 1213.5,570.5 1212.5,570.5C 1212.5,567.833 1212.5,565.167 1212.5,562.5 Z"/></g>
<g><path style="opacity:1" fill="#0018a2" d="M 1221.5,582.5 C 1219.71,582.785 1218.05,582.452 1216.5,581.5C 1213.78,570.562 1212.45,570.895 1212.5,582.5C 1211.17,582.5 1209.83,582.5 1208.5,582.5C 1208.5,574.833 1208.5,567.167 1208.5,559.5C 1218.87,558.679 1221.87,562.845 1217.5,572C 1218.76,575.574 1220.1,579.074 1221.5,582.5 Z M 1212.5,562.5 C 1212.5,565.167 1212.5,567.833 1212.5,570.5C 1213.5,570.5 1214.5,570.5 1215.5,570.5C 1215.5,567.833 1215.5,565.167 1215.5,562.5C 1214.5,562.5 1213.5,562.5 1212.5,562.5 Z"/></g>
<g><path style="opacity:1" fill="#0018a2" d="M 576.5,561.5 C 584.84,561.334 593.173,561.5 601.5,562C 602,562.5 602.5,563 603,563.5C 614.293,612.299 625.46,661.133 636.5,710C 636.415,711.107 636.081,712.107 635.5,713C 628.117,713.799 620.783,713.632 613.5,712.5C 609.974,700.375 607.14,688.042 605,675.5C 598.256,674.521 591.422,674.188 584.5,674.5C 586.116,664.14 587.949,653.806 590,643.5C 592.719,642.556 595.552,642.223 598.5,642.5C 595.732,628.826 592.899,615.16 590,601.5C 583.846,638.932 576.68,676.099 568.5,713C 560.833,713.667 553.167,713.667 545.5,713C 545,712.5 544.5,712 544,711.5C 553.999,661.339 564.833,611.339 576.5,561.5 Z"/></g>
<g><path style="opacity:1" fill="#0018a2" d="M 643.5,561.5 C 650.841,561.334 658.174,561.5 665.5,562C 666,562.5 666.5,563 667,563.5C 667.333,598.167 667.667,632.833 668,667.5C 669.649,680.845 676.815,685.679 689.5,682C 693.999,677.834 696.499,672.667 697,666.5C 697.333,631.833 697.667,597.167 698,562.5C 705.42,561.353 712.92,561.187 720.5,562C 721.126,562.75 721.626,563.584 722,564.5C 722.943,602.524 722.609,640.524 721,678.5C 715.678,708.735 698.178,720.235 668.5,713C 659.926,707.757 653.426,700.59 649,691.5C 645.852,682.76 643.852,673.76 643,664.5C 642.174,630.095 642.341,595.762 643.5,561.5 Z"/></g>
<g><path style="opacity:1" fill="#0018a2" d="M 758.5,561.5 C 784.502,561.333 810.502,561.5 836.5,562C 837.651,571.756 837.818,581.589 837,591.5C 827.917,592.485 818.751,592.818 809.5,592.5C 809.833,632.506 809.5,672.506 808.5,712.5C 801.167,713.833 793.833,713.833 786.5,712.5C 785.5,672.506 785.167,632.506 785.5,592.5C 776.475,592.832 767.475,592.498 758.5,591.5C 757.191,581.5 757.191,571.5 758.5,561.5 Z"/></g>
<g><path style="opacity:1" fill="#0018a2" d="M 849.5,561.5 C 909.697,550.284 934.53,574.618 924,634.5C 920.907,644.598 915.073,652.765 906.5,659C 914.847,675.861 922.514,693.028 929.5,710.5C 929.392,711.442 929.059,712.275 928.5,713C 920.833,713.667 913.167,713.667 905.5,713C 894.613,688.051 884.113,662.884 874,637.5C 873.667,661.833 873.333,686.167 873,710.5C 872.626,711.416 872.126,712.25 871.5,713C 864.5,713.667 857.5,713.667 850.5,713C 850,712.5 849.5,712 849,711.5C 848.172,661.429 848.339,611.429 849.5,561.5 Z M 873.5,592.5 C 896.458,588.959 905.624,598.626 901,621.5C 899.58,628.252 895.414,631.752 888.5,632C 883.511,632.499 878.511,632.666 873.5,632.5C 873.5,619.167 873.5,605.833 873.5,592.5 Z"/></g>
<g><path style="opacity:1" fill="#0018a1" d="M 965.5,561.5 C 974.192,561.169 982.859,561.502 991.5,562.5C 1003.34,611.353 1014.67,660.353 1025.5,709.5C 1025.43,710.772 1025.1,711.938 1024.5,713C 1017.5,713.667 1010.5,713.667 1003.5,713C 1002.3,712.097 1001.47,710.931 1001,709.5C 999.305,701.524 997.805,693.524 996.5,685.5C 985.5,685.5 974.5,685.5 963.5,685.5C 962.326,694.211 960.826,702.878 959,711.5C 958.5,712 958,712.5 957.5,713C 949.833,713.667 942.167,713.667 934.5,713C 933.196,712.196 932.529,711.029 932.5,709.5C 943.509,660.132 954.509,610.799 965.5,561.5 Z M 978.5,603.5 C 979.649,603.791 980.316,604.624 980.5,606C 983.556,621.836 986.556,637.67 989.5,653.5C 983.167,653.5 976.833,653.5 970.5,653.5C 973.383,636.868 976.05,620.201 978.5,603.5 Z"/></g>
<g><path style="opacity:1" fill="#0018a2" d="M 1036.5,561.5 C 1051.17,561.333 1065.84,561.5 1080.5,562C 1093.49,566.319 1102.65,574.819 1108,587.5C 1110.29,594.008 1111.96,600.674 1113,607.5C 1113.67,629.5 1113.67,651.5 1113,673.5C 1111.79,685.495 1107.29,695.995 1099.5,705C 1093.94,709.411 1087.61,712.078 1080.5,713C 1065.79,713.816 1051.12,713.65 1036.5,712.5C 1035.17,662.099 1035.17,611.766 1036.5,561.5 Z M 1059.5,592.5 C 1067.03,591.927 1074.37,592.761 1081.5,595C 1085.57,598.543 1087.74,603.043 1088,608.5C 1088.67,627.5 1088.67,646.5 1088,665.5C 1087.75,672.504 1084.58,677.671 1078.5,681C 1072.18,681.5 1065.84,681.666 1059.5,681.5C 1059.5,651.833 1059.5,622.167 1059.5,592.5 Z"/></g>
<g><path style="opacity:1" fill="#0018a2" d="M 1128.5,561.5 C 1150.08,561.173 1171.58,561.506 1193,562.5C 1194.11,567.391 1194.61,572.391 1194.5,577.5C 1194.33,581.833 1194.17,586.167 1194,590.5C 1193.5,591 1193,591.5 1192.5,592C 1178.84,592.5 1165.17,592.667 1151.5,592.5C 1151.5,601.833 1151.5,611.167 1151.5,620.5C 1163.5,620.333 1175.5,620.5 1187.5,621C 1188,621.5 1188.5,622 1189,622.5C 1189.82,632.078 1189.65,641.578 1188.5,651C 1176.17,651.5 1163.84,651.667 1151.5,651.5C 1151.5,661.833 1151.5,672.167 1151.5,682.5C 1166.58,681.86 1181.41,682.526 1196,684.5C 1196.67,693.5 1196.67,702.5 1196,711.5C 1195.5,712 1195,712.5 1194.5,713C 1172.83,713.667 1151.17,713.667 1129.5,713C 1129,712.5 1128.5,712 1128,711.5C 1127.17,661.429 1127.34,611.429 1128.5,561.5 Z"/></g>
<g><path style="opacity:1" fill="#0018a2" d="M 654.5,764.5 C 671.332,761.834 679.665,769.001 679.5,786C 680.033,804.3 671.367,811.467 653.5,807.5C 653.184,793.088 653.518,778.755 654.5,764.5 Z M 658.5,771.5 C 662.182,771.335 665.848,771.501 669.5,772C 670.333,772.833 671.167,773.667 672,774.5C 675.615,783.287 675.115,791.787 670.5,800C 666.637,801.354 662.637,801.854 658.5,801.5C 658.5,791.5 658.5,781.5 658.5,771.5 Z"/></g>
<g><path style="opacity:1" fill="#0018a2" d="M 716.5,764.5 C 723.833,764.5 731.167,764.5 738.5,764.5C 738.5,766.833 738.5,769.167 738.5,771.5C 732.833,771.5 727.167,771.5 721.5,771.5C 721.5,775.167 721.5,778.833 721.5,782.5C 726.833,782.5 732.167,782.5 737.5,782.5C 737.5,784.5 737.5,786.5 737.5,788.5C 732.167,788.5 726.833,788.5 721.5,788.5C 721.5,793.167 721.5,797.833 721.5,802.5C 727.5,802.5 733.5,802.5 739.5,802.5C 739.5,804.167 739.5,805.833 739.5,807.5C 731.833,807.5 724.167,807.5 716.5,807.5C 716.5,793.167 716.5,778.833 716.5,764.5 Z"/></g>
<g><path style="opacity:1" fill="#0018a2" d="M 777.5,764.5 C 778.833,764.5 780.167,764.5 781.5,764.5C 781.333,776.838 781.5,789.171 782,801.5C 786.737,802.469 791.57,802.803 796.5,802.5C 796.5,804.167 796.5,805.833 796.5,807.5C 789.833,807.5 783.167,807.5 776.5,807.5C 776.184,793.088 776.518,778.755 777.5,764.5 Z"/></g>
<g><path style="opacity:1" fill="#0018a2" d="M 833.5,764.5 C 835.167,764.5 836.833,764.5 838.5,764.5C 838.5,778.833 838.5,793.167 838.5,807.5C 836.833,807.5 835.167,807.5 833.5,807.5C 833.5,793.167 833.5,778.833 833.5,764.5 Z"/></g>
<g><path style="opacity:1" fill="#0018a2" d="M 874.5,764.5 C 876.467,764.261 878.301,764.594 880,765.5C 882.824,776.463 885.491,787.463 888,798.5C 891.865,787.4 895.031,776.067 897.5,764.5C 899.167,764.5 900.833,764.5 902.5,764.5C 898.677,778.791 895.011,793.124 891.5,807.5C 889.5,807.5 887.5,807.5 885.5,807.5C 882.303,793.045 878.636,778.712 874.5,764.5 Z"/></g>
<g><path style="opacity:1" fill="#0018a2" d="M 938.5,764.5 C 945.833,764.5 953.167,764.5 960.5,764.5C 960.756,766.792 960.423,768.959 959.5,771C 954.177,771.499 948.844,771.666 943.5,771.5C 943.789,775.106 943.456,778.606 942.5,782C 948.157,782.499 953.824,782.666 959.5,782.5C 959.5,784.5 959.5,786.5 959.5,788.5C 953.824,788.334 948.157,788.501 942.5,789C 943.467,793.401 943.8,797.901 943.5,802.5C 949.5,802.5 955.5,802.5 961.5,802.5C 961.5,804.167 961.5,805.833 961.5,807.5C 953.833,807.5 946.167,807.5 938.5,807.5C 938.5,793.167 938.5,778.833 938.5,764.5 Z"/></g>
<g><path style="opacity:1" fill="#0018a2" d="M 998.5,764.5 C 1003.84,764.334 1009.18,764.501 1014.5,765C 1018.02,765.504 1020.52,767.337 1022,770.5C 1022.67,774.833 1022.67,779.167 1022,783.5C 1020.13,785.709 1017.96,787.542 1015.5,789C 1016.67,790.167 1017.83,791.333 1019,792.5C 1020.91,797.317 1023.08,801.984 1025.5,806.5C 1023.58,807.641 1021.58,807.808 1019.5,807C 1017.02,801.048 1014.02,795.382 1010.5,790C 1008.19,789.503 1005.86,789.337 1003.5,789.5C 1003.5,795.5 1003.5,801.5 1003.5,807.5C 1001.83,807.5 1000.17,807.5 998.5,807.5C 998.5,793.167 998.5,778.833 998.5,764.5 Z M 1003.5,770.5 C 1007.94,770.21 1012.27,770.71 1016.5,772C 1017.61,774.737 1017.78,777.571 1017,780.5C 1016.61,781.428 1015.95,782.095 1015,782.5C 1011.22,783.394 1007.39,783.728 1003.5,783.5C 1003.5,779.167 1003.5,774.833 1003.5,770.5 Z"/></g>
<g><path style="opacity:1" fill="#0018a2" d="M 1058.5,764.5 C 1060.47,764.261 1062.3,764.594 1064,765.5C 1066.67,771.5 1069.33,777.5 1072,783.5C 1074.93,777.543 1077.76,771.543 1080.5,765.5C 1082.05,764.548 1083.71,764.215 1085.5,764.5C 1082.31,772.554 1078.81,780.554 1075,788.5C 1074.5,794.825 1074.33,801.158 1074.5,807.5C 1072.83,807.5 1071.17,807.5 1069.5,807.5C 1069.67,801.158 1069.5,794.825 1069,788.5C 1065.21,780.585 1061.71,772.585 1058.5,764.5 Z"/></g>
</svg>
