<?xml version="1.0" encoding="UTF-8"?>
<!DOCTYPE svg PUBLIC "-//W3C//DTD SVG 1.1//EN" "http://www.w3.org/Graphics/SVG/1.1/DTD/svg11.dtd">
<svg xmlns="http://www.w3.org/2000/svg" version="1.1" width="1417px" height="1418px" style="shape-rendering:geometricPrecision; text-rendering:geometricPrecision; image-rendering:optimizeQuality; fill-rule:evenodd; clip-rule:evenodd" xmlns:xlink="http://www.w3.org/1999/xlink">
<g><path style="opacity:1" fill="#0364af" d="M 690.5,292.5 C 695.96,293.829 701.793,294.496 708,294.5C 714.207,294.496 720.04,293.829 725.5,292.5C 731.409,293.455 737.409,293.789 743.5,293.5C 745.048,294.794 747.048,295.461 749.5,295.5C 751.696,295.495 753.696,295.162 755.5,294.5C 759.5,294.5 763.5,294.5 767.5,294.5C 766.047,295.825 766.381,296.658 768.5,297C 770.387,297.78 772.054,297.613 773.5,296.5C 812.573,299.817 849.906,307.65 885.5,320C 894.748,322.146 903.748,324.98 912.5,328.5C 912.5,329.5 912.5,330.5 912.5,331.5C 914.741,331.954 916.741,331.954 918.5,331.5C 935.019,337.429 951.019,344.429 966.5,352.5C 967.525,354.201 969.025,355.535 971,356.5C 972.373,357.515 973.54,357.515 974.5,356.5C 991.857,365.075 1008.52,374.742 1024.5,385.5C 1025,388.264 1026.67,389.931 1029.5,390.5C 1032.49,391.661 1035.16,393.328 1037.5,395.5C 1037.81,397.144 1038.81,398.144 1040.5,398.5C 1053.07,408.696 1065.07,418.696 1076.5,428.5C 1077.89,430.89 1079.89,432.557 1082.5,433.5C 1084.15,434.473 1085.82,435.473 1087.5,436.5C 1088.79,441.128 1091.79,444.128 1096.5,445.5C 1096.83,446.167 1097.17,446.833 1097.5,447.5C 1098.08,449.749 1099.41,451.415 1101.5,452.5C 1102.78,452.782 1103.78,453.449 1104.5,454.5C 1104.37,457.367 1105.7,459.033 1108.5,459.5C 1110.19,459.856 1111.19,460.856 1111.5,462.5C 1111.52,465.179 1112.86,466.512 1115.5,466.5C 1115.5,466.833 1115.5,467.167 1115.5,467.5C 1115.52,470.179 1116.86,471.512 1119.5,471.5C 1119.83,471.5 1120.17,471.5 1120.5,471.5C 1120.16,473.483 1120.82,474.817 1122.5,475.5C 1128.24,481.141 1132.91,487.475 1136.5,494.5C 1137.68,496.771 1138.68,499.105 1139.5,501.5C 1140.5,501.5 1141.5,501.5 1142.5,501.5C 1142.5,501.833 1142.5,502.167 1142.5,502.5C 1142.82,505.819 1144.49,508.152 1147.5,509.5C 1149.98,512.721 1152.31,516.055 1154.5,519.5C 1156.7,527.296 1160.37,534.296 1165.5,540.5C 1167.1,545.055 1169.43,549.055 1172.5,552.5C 1173.51,552.938 1173.51,553.604 1172.5,554.5C 1174.54,560.918 1176.87,567.251 1179.5,573.5C 1180.5,573.5 1181.5,573.5 1182.5,573.5C 1182.61,575.718 1183.28,577.718 1184.5,579.5C 1183.88,579.917 1183.54,580.584 1183.5,581.5C 1184.61,583.39 1185.45,585.39 1186,587.5C 1186.67,588.252 1187.5,588.586 1188.5,588.5C 1188.5,589.167 1188.5,589.833 1188.5,590.5C 1187.22,591.708 1187.22,593.042 1188.5,594.5C 1189.18,594.137 1189.85,593.804 1190.5,593.5C 1190.5,594.167 1190.5,594.833 1190.5,595.5C 1189.76,598.652 1189.76,601.985 1190.5,605.5C 1191.83,605.5 1193.17,605.5 1194.5,605.5C 1196.54,616.344 1198.87,627.344 1201.5,638.5C 1200.37,640.628 1200.2,642.961 1201,645.5C 1201.67,646.252 1202.5,646.586 1203.5,646.5C 1203.5,647.5 1203.5,648.5 1203.5,649.5C 1202.53,651.948 1202.19,654.615 1202.5,657.5C 1203.5,657.5 1204.5,657.5 1205.5,657.5C 1205.5,659.167 1205.5,660.833 1205.5,662.5C 1204.38,664.288 1204.21,666.288 1205,668.5C 1205.24,670.119 1206.07,671.119 1207.5,671.5C 1207.5,674.833 1207.5,678.167 1207.5,681.5C 1206.17,700.167 1206.17,718.833 1207.5,737.5C 1207.5,740.167 1207.5,742.833 1207.5,745.5C 1206.5,745.5 1205.5,745.5 1204.5,745.5C 1204.19,749.371 1204.52,753.038 1205.5,756.5C 1205.5,758.167 1205.5,759.833 1205.5,761.5C 1204.07,761.881 1203.24,762.881 1203,764.5C 1202.24,766.066 1202.4,767.399 1203.5,768.5C 1203.5,769.833 1203.5,771.167 1203.5,772.5C 1202.5,772.5 1201.5,772.5 1200.5,772.5C 1200.21,774.735 1200.54,776.735 1201.5,778.5C 1201.5,779.833 1201.5,781.167 1201.5,782.5C 1200.5,782.414 1199.67,782.748 1199,783.5C 1198.24,785.066 1198.4,786.399 1199.5,787.5C 1199.58,791.331 1198.92,794.998 1197.5,798.5C 1196.5,798.414 1195.67,798.748 1195,799.5C 1194.35,802.218 1193.51,804.884 1192.5,807.5C 1192.64,809.03 1193.31,810.03 1194.5,810.5C 1194.5,811.167 1194.5,811.833 1194.5,812.5C 1193.17,812.5 1191.83,812.5 1190.5,812.5C 1189.34,818.607 1187.68,824.607 1185.5,830.5C 1185.54,831.416 1185.88,832.083 1186.5,832.5C 1186.5,833.167 1186.5,833.833 1186.5,834.5C 1185.5,834.5 1184.5,834.5 1183.5,834.5C 1181.96,840.194 1180.29,845.861 1178.5,851.5C 1178.5,851.833 1178.5,852.167 1178.5,852.5C 1177.5,852.5 1176.5,852.5 1175.5,852.5C 1174.21,852.737 1173.21,852.404 1172.5,851.5C 1170.49,850.076 1168.15,849.41 1165.5,849.5C 1159.51,847.836 1153.51,846.169 1147.5,844.5C 1146.07,843.463 1144.4,842.796 1142.5,842.5C 1134.7,840.744 1127.03,838.744 1119.5,836.5C 1115.12,834.32 1110.45,832.653 1105.5,831.5C 1104.17,831.167 1102.83,830.833 1101.5,830.5C 1099.79,829.262 1097.79,828.595 1095.5,828.5C 1078.43,823.698 1061.43,818.698 1044.5,813.5C 1044.5,812.833 1044.17,812.5 1043.5,812.5C 1045.7,806.384 1048.2,800.384 1051,794.5C 1051.76,792.934 1051.6,791.601 1050.5,790.5C 1050.5,789.833 1050.5,789.167 1050.5,788.5C 1051.5,788.5 1052.5,788.5 1053.5,788.5C 1054.21,783.367 1055.54,778.367 1057.5,773.5C 1057.48,772.274 1057.15,771.274 1056.5,770.5C 1056.5,769.833 1056.5,769.167 1056.5,768.5C 1057.75,768.423 1058.58,767.756 1059,766.5C 1059.76,764.934 1059.6,763.601 1058.5,762.5C 1057.66,762.158 1057.33,761.492 1057.5,760.5C 1060.73,760.763 1062.07,759.263 1061.5,756C 1061.39,754.319 1060.73,753.152 1059.5,752.5C 1059.5,751.5 1059.5,750.5 1059.5,749.5C 1060.5,749.5 1061.5,749.5 1062.5,749.5C 1062.8,746.941 1062.47,744.607 1061.5,742.5C 1061.5,740.5 1061.5,738.5 1061.5,736.5C 1062.82,736.67 1063.99,736.337 1065,735.5C 1065.17,733.333 1065.33,731.167 1065.5,729C 1065.47,726.39 1064.8,724.223 1063.5,722.5C 1063.5,713.5 1063.5,704.5 1063.5,695.5C 1064.48,691.366 1064.82,687.032 1064.5,682.5C 1063.5,682.5 1062.5,682.5 1061.5,682.5C 1061.5,680.5 1061.5,678.5 1061.5,676.5C 1063.37,674.365 1064.04,671.698 1063.5,668.5C 1062.17,668.5 1060.83,668.5 1059.5,668.5C 1059.5,667.5 1059.5,666.5 1059.5,665.5C 1061.37,663.365 1062.04,660.698 1061.5,657.5C 1060.17,657.5 1058.83,657.5 1057.5,657.5C 1057.5,657.167 1057.5,656.833 1057.5,656.5C 1059.34,654.721 1060.01,652.388 1059.5,649.5C 1058.5,649.5 1057.5,649.5 1056.5,649.5C 1056.5,648.833 1056.5,648.167 1056.5,647.5C 1057.6,646.399 1057.76,645.066 1057,643.5C 1056.33,642.748 1055.5,642.414 1054.5,642.5C 1054.5,641.5 1054.5,640.5 1054.5,639.5C 1055.1,639.265 1055.43,638.765 1055.5,638C 1053.53,632.151 1051.36,626.317 1049,620.5C 1048.33,619.748 1047.5,619.414 1046.5,619.5C 1046.5,618.833 1046.5,618.167 1046.5,617.5C 1047.57,616.749 1047.74,615.749 1047,614.5C 1042.4,606.64 1038.9,598.306 1036.5,589.5C 1035.5,589.5 1034.5,589.5 1033.5,589.5C 1033.5,589.167 1033.5,588.833 1033.5,588.5C 1027.99,576.123 1020.99,564.789 1012.5,554.5C 1011.5,554.586 1010.67,554.252 1010,553.5C 1008.34,550.678 1006.5,548.011 1004.5,545.5C 1004.83,542.5 1003.5,541.167 1000.5,541.5C 1000.5,541.167 1000.5,540.833 1000.5,540.5C 998.848,536.656 996.515,533.156 993.5,530C 992.906,529.536 992.239,529.369 991.5,529.5C 987.473,526.806 984.139,523.473 981.5,519.5C 979.855,515.855 977.188,513.188 973.5,511.5C 973.027,510.094 972.027,509.427 970.5,509.5C 962.512,503.177 954.846,496.511 947.5,489.5C 946.71,488.599 945.71,487.932 944.5,487.5C 943.008,484.677 940.674,483.01 937.5,482.5C 935.368,482.446 934.035,481.446 933.5,479.5C 932.341,477.75 930.674,476.75 928.5,476.5C 916.348,469.897 904.348,463.064 892.5,456C 888.774,454.564 885.107,453.064 881.5,451.5C 881.5,450.5 881.5,449.5 881.5,448.5C 879.633,448.045 877.8,447.378 876,446.5C 874.93,446.528 874.097,446.861 873.5,447.5C 842.563,433.973 810.229,424.639 776.5,419.5C 776.5,418.5 776.5,417.5 776.5,416.5C 774.585,416.216 772.919,416.549 771.5,417.5C 769.5,417.5 767.5,417.5 765.5,417.5C 765.209,416.351 764.376,415.684 763,415.5C 761.93,415.528 761.097,415.861 760.5,416.5C 757.833,416.5 755.167,416.5 752.5,416.5C 752.586,415.504 752.252,414.671 751.5,414C 748.961,413.204 746.628,413.371 744.5,414.5C 740.5,414.5 736.5,414.5 732.5,414.5C 732.5,413.5 732.5,412.5 732.5,411.5C 716.167,411.5 699.833,411.5 683.5,411.5C 683.5,412.5 683.5,413.5 683.5,414.5C 679.5,414.5 675.5,414.5 671.5,414.5C 669.052,413.527 666.385,413.194 663.5,413.5C 663.5,414.5 663.5,415.5 663.5,416.5C 657.178,417.014 650.845,417.347 644.5,417.5C 643.081,416.549 641.415,416.216 639.5,416.5C 639.5,417.5 639.5,418.5 639.5,419.5C 634.833,419.833 630.167,420.167 625.5,420.5C 624.791,419.596 623.791,419.263 622.5,419.5C 622.5,420.5 622.5,421.5 622.5,422.5C 594.071,427.93 566.071,436.93 538.5,449.5C 538.631,448.761 538.464,448.094 538,447.5C 535.292,448.63 533.126,450.297 531.5,452.5C 522.726,457.188 513.393,462.188 503.5,467.5C 502.065,466.904 500.398,466.904 498.5,467.5C 498.5,468.5 498.5,469.5 498.5,470.5C 495.397,472.015 492.397,473.682 489.5,475.5C 486.439,474.72 484.439,476.053 483.5,479.5C 482.778,480.551 481.778,481.218 480.5,481.5C 479.279,480.535 477.946,480.702 476.5,482C 473.883,484.442 471.55,486.942 469.5,489.5C 467.229,492.064 464.562,494.064 461.5,495.5C 455.955,497.051 451.955,500.384 449.5,505.5C 448.027,507.395 446.36,509.061 444.5,510.5C 439.884,512.118 436.551,515.118 434.5,519.5C 433.965,521.446 432.632,522.446 430.5,522.5C 428.413,523.585 427.08,525.251 426.5,527.5C 424.417,530.651 422.084,533.651 419.5,536.5C 417.61,536.297 416.11,536.963 415,538.5C 412.762,540.309 411.595,542.642 411.5,545.5C 407.482,547.19 404.816,550.19 403.5,554.5C 402.217,557.766 400.55,560.766 398.5,563.5C 396.616,563.712 395.283,564.712 394.5,566.5C 387.327,576.75 381.327,587.584 376.5,599C 376.57,599.765 376.903,600.265 377.5,600.5C 377.5,600.833 377.5,601.167 377.5,601.5C 376.5,601.5 375.5,601.5 374.5,601.5C 374.5,602.5 374.5,603.5 374.5,604.5C 373.5,604.5 372.5,604.5 371.5,604.5C 370.083,609.925 368.416,615.259 366.5,620.5C 366.543,621.416 366.876,622.083 367.5,622.5C 367.5,622.833 367.5,623.167 367.5,623.5C 366.5,623.5 365.5,623.5 364.5,623.5C 363.617,628.044 362.283,632.544 360.5,637C 360.528,638.07 360.861,638.903 361.5,639.5C 361.5,640.5 361.5,641.5 361.5,642.5C 359.952,642.821 359.285,643.821 359.5,645.5C 359.846,648.602 359.179,651.435 357.5,654C 358.252,654.671 358.586,655.504 358.5,656.5C 357.167,656.5 355.833,656.5 354.5,656.5C 353.964,659.698 354.631,662.365 356.5,664.5C 356.5,665.5 356.5,666.5 356.5,667.5C 355.5,667.5 354.5,667.5 353.5,667.5C 353.198,670.059 353.532,672.393 354.5,674.5C 354.5,676.167 354.5,677.833 354.5,679.5C 353.5,679.5 352.5,679.5 351.5,679.5C 351.185,683.371 351.518,687.038 352.5,690.5C 352.5,702.5 352.5,714.5 352.5,726.5C 351.517,730.298 351.183,734.298 351.5,738.5C 352.5,738.5 353.5,738.5 354.5,738.5C 354.5,740.167 354.5,741.833 354.5,743.5C 353.307,743.97 352.64,744.97 352.5,746.5C 352.202,749.603 353.535,751.27 356.5,751.5C 356.5,752.833 356.5,754.167 356.5,755.5C 355.549,756.919 355.216,758.585 355.5,760.5C 356.5,760.5 357.5,760.5 358.5,760.5C 358.567,761.959 358.234,763.292 357.5,764.5C 357.157,766.483 357.824,767.817 359.5,768.5C 360.373,772.121 361.039,775.788 361.5,779.5C 361.285,781.179 361.952,782.179 363.5,782.5C 363.5,783.5 363.5,784.5 363.5,785.5C 362.876,785.917 362.543,786.584 362.5,787.5C 363.937,789.577 364.604,791.91 364.5,794.5C 365.5,794.5 366.5,794.5 367.5,794.5C 367.5,795.167 367.5,795.833 367.5,796.5C 366.596,797.209 366.263,798.209 366.5,799.5C 367.5,799.5 368.5,799.5 369.5,799.5C 370.865,801.591 371.532,803.924 371.5,806.5C 370.957,806.56 370.624,806.893 370.5,807.5C 371.95,808.85 372.617,810.516 372.5,812.5C 371.833,812.5 371.5,812.833 371.5,813.5C 342.174,822.165 312.84,830.832 283.5,839.5C 278.329,840.933 273.329,842.599 268.5,844.5C 263.776,845.63 259.109,846.964 254.5,848.5C 252.102,848.259 250.102,848.926 248.5,850.5C 247.833,850.5 247.167,850.5 246.5,850.5C 244.597,850.796 242.93,851.463 241.5,852.5C 241.167,852.5 240.833,852.5 240.5,852.5C 239.833,852.5 239.167,852.5 238.5,852.5C 238.5,851.5 238.5,850.5 238.5,849.5C 237.5,849.5 236.5,849.5 235.5,849.5C 234.833,847.5 234.167,845.5 233.5,843.5C 234.124,843.083 234.457,842.416 234.5,841.5C 233.363,837.503 232.363,833.503 231.5,829.5C 230.5,829.5 229.5,829.5 228.5,829.5C 228.5,828.167 228.5,826.833 228.5,825.5C 227.5,825.5 226.5,825.5 225.5,825.5C 224.11,821.244 222.777,816.244 221.5,810.5C 222.434,809.432 222.768,808.099 222.5,806.5C 221.5,806.5 220.5,806.5 219.5,806.5C 219.557,805.391 219.89,804.391 220.5,803.5C 220.715,801.821 220.048,800.821 218.5,800.5C 216.89,793.899 215.556,787.233 214.5,780.5C 215.468,778.393 215.802,776.059 215.5,773.5C 214.5,773.5 213.5,773.5 212.5,773.5C 212.5,772.5 212.5,771.5 212.5,770.5C 213.629,768.372 213.796,766.039 213,763.5C 212.329,762.748 211.496,762.414 210.5,762.5C 210.5,760.833 210.5,759.167 210.5,757.5C 211.479,754.375 211.813,751.042 211.5,747.5C 210.5,747.5 209.5,747.5 208.5,747.5C 208.5,745.167 208.5,742.833 208.5,740.5C 209.165,737.518 209.498,734.352 209.5,731C 209.485,727.424 208.818,724.258 207.5,721.5C 207.5,713.167 207.5,704.833 207.5,696.5C 208.816,693.913 209.483,690.913 209.5,687.5C 209.498,684.314 209.165,681.314 208.5,678.5C 208.5,675.833 208.5,673.167 208.5,670.5C 209.5,670.5 210.5,670.5 211.5,670.5C 211.813,666.958 211.479,663.625 210.5,660.5C 210.5,658.833 210.5,657.167 210.5,655.5C 211.5,655.5 212.5,655.5 213.5,655.5C 213.802,652.941 213.468,650.607 212.5,648.5C 212.358,643.626 213.024,638.959 214.5,634.5C 215.75,634.423 216.583,633.756 217,632.5C 217.765,630.934 217.598,629.601 216.5,628.5C 217.018,624.453 217.852,620.453 219,616.5C 220.511,615.436 220.677,614.103 219.5,612.5C 221.124,612.64 222.29,611.973 223,610.5C 223.53,605.982 224.696,601.649 226.5,597.5C 226.457,596.584 226.124,595.917 225.5,595.5C 225.5,594.833 225.5,594.167 225.5,593.5C 226.5,593.5 227.5,593.5 228.5,593.5C 229.112,589.297 230.446,585.297 232.5,581.5C 232.457,580.584 232.124,579.917 231.5,579.5C 231.704,577.315 232.37,575.315 233.5,573.5C 234.5,573.5 235.5,573.5 236.5,573.5C 238.281,568.212 239.948,562.879 241.5,557.5C 241.5,556.833 241.5,556.167 241.5,555.5C 242.5,555.5 243.5,555.5 244.5,555.5C 247.469,548.963 250.135,542.296 252.5,535.5C 252.5,534.833 252.5,534.167 252.5,533.5C 253.5,533.5 254.5,533.5 255.5,533.5C 259.15,526.843 262.817,520.176 266.5,513.5C 266.229,511.62 266.896,510.287 268.5,509.5C 270.719,508.172 272.052,506.172 272.5,503.5C 273.5,503.5 274.5,503.5 275.5,503.5C 275.5,501.833 275.5,500.167 275.5,498.5C 277.624,497.969 279.124,496.635 280,494.5C 280.49,493.207 280.657,491.873 280.5,490.5C 280.833,490.5 281.167,490.5 281.5,490.5C 285.092,489.125 287.092,486.458 287.5,482.5C 289.833,482.167 291.167,480.833 291.5,478.5C 291.5,478.167 291.5,477.833 291.5,477.5C 293.017,477.489 294.184,476.823 295,475.5C 296.879,473.473 298.046,471.14 298.5,468.5C 299.167,467.833 299.833,467.167 300.5,466.5C 303.142,466.512 304.475,465.179 304.5,462.5C 304.5,461.167 305.167,460.5 306.5,460.5C 309.5,459.5 311.5,457.5 312.5,454.5C 315.598,453.137 317.265,450.803 317.5,447.5C 317.833,447.5 318.167,447.5 318.5,447.5C 323.466,444.201 327.799,440.201 331.5,435.5C 346.975,422.35 362.975,409.017 379.5,395.5C 381.348,393.53 383.348,391.53 385.5,389.5C 394.237,383.341 403.237,377.674 412.5,372.5C 414.973,373.57 416.307,372.57 416.5,369.5C 486.487,328.893 561.821,304.559 642.5,296.5C 644.607,297.468 646.941,297.802 649.5,297.5C 649.5,296.5 649.5,295.5 649.5,294.5C 653.167,294.5 656.833,294.5 660.5,294.5C 662.134,295.161 663.967,295.494 666,295.5C 668.295,295.453 670.129,294.787 671.5,293.5C 677.923,293.791 684.256,293.458 690.5,292.5 Z"/></g>
<g><path style="opacity:1" fill="#77a1cd" d="M 690.5,292.5 C 702.167,292.5 713.833,292.5 725.5,292.5C 720.04,293.829 714.207,294.496 708,294.5C 701.793,294.496 695.96,293.829 690.5,292.5 Z"/></g>
<g><path style="opacity:1" fill="#7f9ec9" d="M 671.5,293.5 C 670.129,294.787 668.295,295.453 666,295.5C 663.967,295.494 662.134,295.161 660.5,294.5C 664.154,294.058 667.821,293.724 671.5,293.5 Z"/></g>
<g><path style="opacity:1" fill="#799ac8" d="M 743.5,293.5 C 747.519,293.646 751.519,293.979 755.5,294.5C 753.696,295.162 751.696,295.495 749.5,295.5C 747.048,295.461 745.048,294.794 743.5,293.5 Z"/></g>
<g><path style="opacity:1" fill="#8ba7cd" d="M 649.5,294.5 C 649.5,295.5 649.5,296.5 649.5,297.5C 646.941,297.802 644.607,297.468 642.5,296.5C 645.598,296.587 645.932,296.087 643.5,295C 645.473,294.505 647.473,294.338 649.5,294.5 Z"/></g>
<g><path style="opacity:1" fill="#89a8cf" d="M 767.5,294.5 C 769.199,294.34 770.866,294.506 772.5,295C 770.068,296.087 770.402,296.587 773.5,296.5C 772.054,297.613 770.387,297.78 768.5,297C 766.381,296.658 766.047,295.825 767.5,294.5 Z"/></g>
<g><path style="opacity:1" fill="#648fc4" d="M 912.5,328.5 C 915.015,328.769 917.015,329.769 918.5,331.5C 916.741,331.954 914.741,331.954 912.5,331.5C 912.5,330.5 912.5,329.5 912.5,328.5 Z"/></g>
<g><path style="opacity:1" fill="#7096c6" d="M 966.5,352.5 C 969.549,353.208 972.215,354.541 974.5,356.5C 973.54,357.515 972.373,357.515 971,356.5C 969.025,355.535 967.525,354.201 966.5,352.5 Z"/></g>
<g><path style="opacity:1" fill="#7ea1ca" d="M 416.5,369.5 C 416.307,372.57 414.973,373.57 412.5,372.5C 413.926,371.659 415.26,370.659 416.5,369.5 Z"/></g>
<g><path style="opacity:1" fill="#98b2d4" d="M 1024.5,385.5 C 1026.44,386.954 1028.1,388.621 1029.5,390.5C 1026.67,389.931 1025,388.264 1024.5,385.5 Z"/></g>
<g><path style="opacity:1" fill="#a2bbd9" d="M 1037.5,395.5 C 1039.19,395.856 1040.19,396.856 1040.5,398.5C 1038.81,398.144 1037.81,397.144 1037.5,395.5 Z"/></g>
<g><path style="opacity:1" fill="#5a8dc1" d="M 732.5,414.5 C 729.5,414.5 726.5,414.5 723.5,414.5C 718.544,413.172 713.211,412.505 707.5,412.5C 701.789,412.505 696.456,413.172 691.5,414.5C 688.833,414.5 686.167,414.5 683.5,414.5C 683.5,413.5 683.5,412.5 683.5,411.5C 699.833,411.5 716.167,411.5 732.5,411.5C 732.5,412.5 732.5,413.5 732.5,414.5 Z"/></g>
<g><path style="opacity:1" fill="#497ab9" d="M 379.5,395.5 C 362.975,409.017 346.975,422.35 331.5,435.5C 331.539,434.417 331.873,433.417 332.5,432.5C 346.158,420.516 360.158,408.849 374.5,397.5C 376.022,396.438 377.688,395.771 379.5,395.5 Z"/></g>
<g><path style="opacity:1" fill="#b2bfd9" d="M 723.5,414.5 C 712.863,413.188 702.197,413.188 691.5,414.5C 696.456,413.172 701.789,412.505 707.5,412.5C 713.211,412.505 718.544,413.172 723.5,414.5 Z"/></g>
<g><path style="opacity:1" fill="#4a7bb9" d="M 1040.5,398.5 C 1041.55,398.351 1042.55,398.517 1043.5,399C 1052.36,406.357 1061.36,413.523 1070.5,420.5C 1072.57,422.897 1074.57,425.231 1076.5,427.5C 1076.5,427.833 1076.5,428.167 1076.5,428.5C 1065.07,418.696 1053.07,408.696 1040.5,398.5 Z"/></g>
<g><path style="opacity:1" fill="#7899c8" d="M 671.5,414.5 C 669.319,415.45 666.652,416.117 663.5,416.5C 663.5,415.5 663.5,414.5 663.5,413.5C 666.385,413.194 669.052,413.527 671.5,414.5 Z"/></g>
<g><path style="opacity:1" fill="#7898c8" d="M 744.5,414.5 C 746.628,413.371 748.961,413.204 751.5,414C 752.252,414.671 752.586,415.504 752.5,416.5C 749.348,416.117 746.681,415.45 744.5,414.5 Z"/></g>
<g><path style="opacity:1" fill="#8fa5ce" d="M 765.5,417.5 C 763.585,417.784 761.919,417.451 760.5,416.5C 761.097,415.861 761.93,415.528 763,415.5C 764.376,415.684 765.209,416.351 765.5,417.5 Z"/></g>
<g><path style="opacity:1" fill="#89a4cc" d="M 644.5,417.5 C 643.448,419.256 641.781,419.923 639.5,419.5C 639.5,418.5 639.5,417.5 639.5,416.5C 641.415,416.216 643.081,416.549 644.5,417.5 Z"/></g>
<g><path style="opacity:1" fill="#7a99c7" d="M 776.5,419.5 C 774.219,419.923 772.552,419.256 771.5,417.5C 772.919,416.549 774.585,416.216 776.5,416.5C 776.5,417.5 776.5,418.5 776.5,419.5 Z"/></g>
<g><path style="opacity:1" fill="#86a2cc" d="M 625.5,420.5 C 625.179,422.048 624.179,422.715 622.5,422.5C 622.5,421.5 622.5,420.5 622.5,419.5C 623.791,419.263 624.791,419.596 625.5,420.5 Z"/></g>
<g><path style="opacity:1" fill="#8da8ce" d="M 1076.5,427.5 C 1079.83,428.167 1081.83,430.167 1082.5,433.5C 1079.89,432.557 1077.89,430.89 1076.5,428.5C 1076.5,428.167 1076.5,427.833 1076.5,427.5 Z"/></g>
<g><path style="opacity:1" fill="#6e91c5" d="M 331.5,435.5 C 327.799,440.201 323.466,444.201 318.5,447.5C 321.248,441.751 325.581,437.751 331.5,435.5 Z"/></g>
<g><path style="opacity:1" fill="#7c9ac8" d="M 1087.5,436.5 C 1090.83,439.167 1093.83,442.167 1096.5,445.5C 1091.79,444.128 1088.79,441.128 1087.5,436.5 Z"/></g>
<g><path style="opacity:1" fill="#628cc1" d="M 873.5,447.5 C 874.097,446.861 874.93,446.528 876,446.5C 877.8,447.378 879.633,448.045 881.5,448.5C 881.5,449.5 881.5,450.5 881.5,451.5C 878.931,449.977 876.264,448.643 873.5,447.5 Z"/></g>
<g><path style="opacity:1" fill="#7d9dc9" d="M 317.5,447.5 C 317.265,450.803 315.598,453.137 312.5,454.5C 313.044,451.3 314.71,448.967 317.5,447.5 Z"/></g>
<g><path style="opacity:1" fill="#7d9eca" d="M 538.5,449.5 C 537.051,450.894 534.718,451.894 531.5,452.5C 533.126,450.297 535.292,448.63 538,447.5C 538.464,448.094 538.631,448.761 538.5,449.5 Z"/></g>
<g><path style="opacity:1" fill="#90a8cf" d="M 1097.5,447.5 C 1099.05,448.693 1100.72,449.86 1102.5,451C 1101.94,451.383 1101.61,451.883 1101.5,452.5C 1099.41,451.415 1098.08,449.749 1097.5,447.5 Z"/></g>
<g><path style="opacity:1" fill="#7193c5" d="M 312.5,454.5 C 311.5,457.5 309.5,459.5 306.5,460.5C 307.167,457.167 309.167,455.167 312.5,454.5 Z"/></g>
<g><path style="opacity:1" fill="#87a1cc" d="M 1104.5,454.5 C 1106.69,455.444 1108.02,457.111 1108.5,459.5C 1105.7,459.033 1104.37,457.367 1104.5,454.5 Z"/></g>
<g><path style="opacity:1" fill="#81a0ca" d="M 304.5,462.5 C 304.475,465.179 303.142,466.512 300.5,466.5C 300.918,465.778 301.584,465.278 302.5,465C 301.588,463.375 302.255,462.541 304.5,462.5 Z"/></g>
<g><path style="opacity:1" fill="#93aed1" d="M 1111.5,462.5 C 1113.09,463.533 1114.42,464.866 1115.5,466.5C 1112.86,466.512 1111.52,465.179 1111.5,462.5 Z"/></g>
<g><path style="opacity:1" fill="#85a2cb" d="M 1115.5,467.5 C 1117.5,468.167 1118.83,469.5 1119.5,471.5C 1116.86,471.512 1115.52,470.179 1115.5,467.5 Z"/></g>
<g><path style="opacity:1" fill="#7fa2cb" d="M 503.5,467.5 C 501.515,468.047 499.849,469.047 498.5,470.5C 498.5,469.5 498.5,468.5 498.5,467.5C 500.398,466.904 502.065,466.904 503.5,467.5 Z"/></g>
<g><path style="opacity:1" fill="#859fca" d="M 1120.5,471.5 C 1121.45,472.452 1122.45,473.452 1123.5,474.5C 1123.38,475.107 1123.04,475.44 1122.5,475.5C 1120.82,474.817 1120.16,473.483 1120.5,471.5 Z"/></g>
<g><path style="opacity:1" fill="#8ba8cf" d="M 298.5,468.5 C 298.046,471.14 296.879,473.473 295,475.5C 294.184,476.823 293.017,477.489 291.5,477.5C 293.143,473.869 295.477,470.869 298.5,468.5 Z"/></g>
<g><path style="opacity:1" fill="#7d9fca" d="M 489.5,475.5 C 487.94,477.429 485.94,478.762 483.5,479.5C 484.439,476.053 486.439,474.72 489.5,475.5 Z"/></g>
<g><path style="opacity:1" fill="#83a2cc" d="M 928.5,476.5 C 930.674,476.75 932.341,477.75 933.5,479.5C 931.152,479.408 929.486,478.408 928.5,476.5 Z"/></g>
<g><path style="opacity:1" fill="#7fa0ca" d="M 291.5,478.5 C 291.167,480.833 289.833,482.167 287.5,482.5C 287.957,480.227 289.29,478.894 291.5,478.5 Z"/></g>
<g><path style="opacity:1" fill="#81a2cc" d="M 480.5,481.5 C 477.128,484.534 473.461,487.201 469.5,489.5C 471.55,486.942 473.883,484.442 476.5,482C 477.946,480.702 479.279,480.535 480.5,481.5 Z"/></g>
<g><path style="opacity:1" fill="#7094c5" d="M 937.5,482.5 C 940.674,483.01 943.008,484.677 944.5,487.5C 941.142,487.152 938.808,485.486 937.5,482.5 Z"/></g>
<g><path style="opacity:1" fill="#6a8fc3" d="M 287.5,482.5 C 287.092,486.458 285.092,489.125 281.5,490.5C 283.072,487.583 285.072,484.916 287.5,482.5 Z"/></g>
<g><path style="opacity:1" fill="#a8bdda" d="M 944.5,487.5 C 945.71,487.932 946.71,488.599 947.5,489.5C 945.821,489.715 944.821,489.048 944.5,487.5 Z"/></g>
<g><path style="opacity:1" fill="#7397c7" d="M 280.5,490.5 C 280.657,491.873 280.49,493.207 280,494.5C 279.124,496.635 277.624,497.969 275.5,498.5C 277.151,495.843 278.818,493.177 280.5,490.5 Z"/></g>
<g><path style="opacity:1" fill="#e6191e" d="M 617.5,498.5 C 677.834,498.333 738.168,498.5 798.5,499C 799.833,543.333 799.833,587.667 798.5,632C 852.499,632.5 906.499,632.667 960.5,632.5C 960.5,683.167 960.5,733.833 960.5,784.5C 906.499,784.333 852.499,784.5 798.5,785C 799.497,829.761 799.83,874.595 799.5,919.5C 738.5,919.5 677.5,919.5 616.5,919.5C 616.17,874.595 616.503,829.761 617.5,785C 562.834,784.5 508.168,784.333 453.5,784.5C 453.5,733.833 453.5,683.167 453.5,632.5C 508.168,632.667 562.834,632.5 617.5,632C 616.169,587.5 616.169,543 617.5,498.5 Z"/></g>
<g><path style="opacity:1" fill="#7498c7" d="M 1136.5,494.5 C 1139.19,496.193 1141.19,498.527 1142.5,501.5C 1141.5,501.5 1140.5,501.5 1139.5,501.5C 1138.68,499.105 1137.68,496.771 1136.5,494.5 Z"/></g>
<g><path style="opacity:1" fill="#7e9dc9" d="M 275.5,498.5 C 275.5,500.167 275.5,501.833 275.5,503.5C 274.5,503.5 273.5,503.5 272.5,503.5C 272.052,506.172 270.719,508.172 268.5,509.5C 268.389,508.883 268.056,508.383 267.5,508C 270.004,503.79 272.671,500.623 275.5,498.5 Z"/></g>
<g><path style="opacity:1" fill="#6288bf" d="M 461.5,495.5 C 458.134,499.527 454.134,502.86 449.5,505.5C 451.955,500.384 455.955,497.051 461.5,495.5 Z"/></g>
<g><path style="opacity:1" fill="#7396c7" d="M 1142.5,502.5 C 1143.93,504.744 1145.93,506.577 1148.5,508C 1147.94,508.383 1147.61,508.883 1147.5,509.5C 1144.49,508.152 1142.82,505.819 1142.5,502.5 Z"/></g>
<g><path style="opacity:1" fill="#b0c3de" d="M 970.5,509.5 C 972.027,509.427 973.027,510.094 973.5,511.5C 971.973,511.573 970.973,510.906 970.5,509.5 Z"/></g>
<g><path style="opacity:1" fill="#8ca6ce" d="M 444.5,510.5 C 441.769,514.234 438.436,517.234 434.5,519.5C 436.551,515.118 439.884,512.118 444.5,510.5 Z"/></g>
<g><path style="opacity:1" fill="#7193c5" d="M 973.5,511.5 C 977.188,513.188 979.855,515.855 981.5,519.5C 977.833,517.833 975.167,515.167 973.5,511.5 Z"/></g>
<g><path style="opacity:1" fill="#85a4ce" d="M 266.5,513.5 C 262.817,520.176 259.15,526.843 255.5,533.5C 254.5,533.5 253.5,533.5 252.5,533.5C 256.588,526.366 261.255,519.699 266.5,513.5 Z"/></g>
<g><path style="opacity:1" fill="#83a2cc" d="M 430.5,522.5 C 429.864,524.795 428.531,526.461 426.5,527.5C 427.08,525.251 428.413,523.585 430.5,522.5 Z"/></g>
<g><path style="opacity:1" fill="#7599c7" d="M 1154.5,519.5 C 1157.72,525.254 1161.22,530.921 1165,536.5C 1165.49,537.793 1165.66,539.127 1165.5,540.5C 1160.37,534.296 1156.7,527.296 1154.5,519.5 Z"/></g>
<g><path style="opacity:1" fill="#7598c7" d="M 991.5,529.5 C 992.239,529.369 992.906,529.536 993.5,530C 996.515,533.156 998.848,536.656 1000.5,540.5C 999.265,540.279 998.265,539.612 997.5,538.5C 995.483,535.488 993.483,532.488 991.5,529.5 Z"/></g>
<g><path style="opacity:1" fill="#7899c7" d="M 419.5,536.5 C 416.736,539.517 414.07,542.517 411.5,545.5C 411.595,542.642 412.762,540.309 415,538.5C 416.11,536.963 417.61,536.297 419.5,536.5 Z"/></g>
<g><path style="opacity:1" fill="#87a2cc" d="M 1000.5,541.5 C 1003.5,541.167 1004.83,542.5 1004.5,545.5C 1002.91,544.467 1001.58,543.134 1000.5,541.5 Z"/></g>
<g><path style="opacity:1" fill="#87a4cd" d="M 252.5,535.5 C 250.135,542.296 247.469,548.963 244.5,555.5C 243.5,555.5 242.5,555.5 241.5,555.5C 242.028,554.279 242.695,553.113 243.5,552C 243.167,551.667 242.833,551.333 242.5,551C 246.026,545.736 249.359,540.569 252.5,535.5 Z"/></g>
<g><path style="opacity:1" fill="#8ca5ce" d="M 1165.5,540.5 C 1168.94,543.772 1171.27,547.772 1172.5,552.5C 1169.43,549.055 1167.1,545.055 1165.5,540.5 Z"/></g>
<g><path style="opacity:1" fill="#7b9bc8" d="M 411.5,545.5 C 409.469,547.961 407.636,550.628 406,553.5C 405.329,554.252 404.496,554.586 403.5,554.5C 404.816,550.19 407.482,547.19 411.5,545.5 Z"/></g>
<g><path style="opacity:1" fill="#7b9cc9" d="M 241.5,557.5 C 239.948,562.879 238.281,568.212 236.5,573.5C 235.5,573.5 234.5,573.5 233.5,573.5C 235.62,567.75 238.286,562.417 241.5,557.5 Z"/></g>
<g><path style="opacity:1" fill="#799bc8" d="M 1012.5,554.5 C 1020.99,564.789 1027.99,576.123 1033.5,588.5C 1026.13,577.915 1018.8,567.082 1011.5,556C 1012.06,555.617 1012.39,555.117 1012.5,554.5 Z"/></g>
<g><path style="opacity:1" fill="#81a2cc" d="M 1172.5,554.5 C 1173.5,554.47 1174.16,554.97 1174.5,556C 1177.08,561.966 1179.75,567.8 1182.5,573.5C 1181.5,573.5 1180.5,573.5 1179.5,573.5C 1176.87,567.251 1174.54,560.918 1172.5,554.5 Z"/></g>
<g><path style="opacity:1" fill="#85a2cc" d="M 398.5,563.5 C 389.797,575.335 382.797,587.668 377.5,600.5C 376.903,600.265 376.57,599.765 376.5,599C 381.327,587.584 387.327,576.75 394.5,566.5C 395.283,564.712 396.616,563.712 398.5,563.5 Z"/></g>
<g><path style="opacity:1" fill="#94aed2" d="M 1184.5,579.5 C 1185.83,582.5 1187.17,585.5 1188.5,588.5C 1187.5,588.586 1186.67,588.252 1186,587.5C 1185.45,585.39 1184.61,583.39 1183.5,581.5C 1183.54,580.584 1183.88,579.917 1184.5,579.5 Z"/></g>
<g><path style="opacity:1" fill="#85a2cc" d="M 231.5,579.5 C 232.124,579.917 232.457,580.584 232.5,581.5C 230.446,585.297 229.112,589.297 228.5,593.5C 227.5,593.5 226.5,593.5 225.5,593.5C 227.507,588.813 229.507,584.147 231.5,579.5 Z"/></g>
<g><path style="opacity:1" fill="#86a2cd" d="M 1188.5,590.5 C 1189.17,591.5 1189.83,592.5 1190.5,593.5C 1189.85,593.804 1189.18,594.137 1188.5,594.5C 1187.22,593.042 1187.22,591.708 1188.5,590.5 Z"/></g>
<g><path style="opacity:1" fill="#7197c8" d="M 1190.5,595.5 C 1191.89,598.279 1192.72,601.279 1193,604.5C 1194.11,603.288 1194.61,603.621 1194.5,605.5C 1193.17,605.5 1191.83,605.5 1190.5,605.5C 1189.76,601.985 1189.76,598.652 1190.5,595.5 Z"/></g>
<g><path style="opacity:1" fill="#93acd1" d="M 1033.5,589.5 C 1034.5,589.5 1035.5,589.5 1036.5,589.5C 1038.9,598.306 1042.4,606.64 1047,614.5C 1047.74,615.749 1047.57,616.749 1046.5,617.5C 1043.59,612.957 1041.43,607.957 1040,602.5C 1039.67,602.833 1039.33,603.167 1039,603.5C 1037.77,600.58 1036.77,597.58 1036,594.5C 1035.67,594.833 1035.33,595.167 1035,595.5C 1034.32,594.216 1034.48,593.049 1035.5,592C 1034.24,591.583 1033.58,590.75 1033.5,589.5 Z"/></g>
<g><path style="opacity:1" fill="#7e9cca" d="M 225.5,595.5 C 226.124,595.917 226.457,596.584 226.5,597.5C 224.696,601.649 223.53,605.982 223,610.5C 222.29,611.973 221.124,612.64 219.5,612.5C 220.758,606.481 222.758,600.814 225.5,595.5 Z"/></g>
<g><path style="opacity:1" fill="#7095c5" d="M 377.5,601.5 C 373.909,608.35 370.576,615.35 367.5,622.5C 366.876,622.083 366.543,621.416 366.5,620.5C 368.416,615.259 370.083,609.925 371.5,604.5C 372.5,604.5 373.5,604.5 374.5,604.5C 374.5,603.5 374.5,602.5 374.5,601.5C 375.5,601.5 376.5,601.5 377.5,601.5 Z"/></g>
<g><path style="opacity:1" fill="#7ea0cb" d="M 1046.5,619.5 C 1047.5,619.414 1048.33,619.748 1049,620.5C 1051.36,626.317 1053.53,632.151 1055.5,638C 1055.43,638.765 1055.1,639.265 1054.5,639.5C 1053.88,639.389 1053.38,639.056 1053,638.5C 1051.51,631.876 1049.35,625.542 1046.5,619.5 Z"/></g>
<g><path style="opacity:1" fill="#89a4ce" d="M 216.5,628.5 C 217.598,629.601 217.765,630.934 217,632.5C 216.583,633.756 215.75,634.423 214.5,634.5C 214.604,632.297 215.27,630.297 216.5,628.5 Z"/></g>
<g><path style="opacity:1" fill="#7399c8" d="M 367.5,623.5 C 365.942,629.037 363.942,634.371 361.5,639.5C 360.861,638.903 360.528,638.07 360.5,637C 362.283,632.544 363.617,628.044 364.5,623.5C 365.5,623.5 366.5,623.5 367.5,623.5 Z"/></g>
<g><path style="opacity:1" fill="#b1bbda" d="M 361.5,642.5 C 361.068,643.71 360.401,644.71 359.5,645.5C 359.285,643.821 359.952,642.821 361.5,642.5 Z"/></g>
<g><path style="opacity:1" fill="#7496c6" d="M 1201.5,638.5 C 1202.75,641.006 1203.42,643.673 1203.5,646.5C 1202.5,646.586 1201.67,646.252 1201,645.5C 1200.2,642.961 1200.37,640.628 1201.5,638.5 Z"/></g>
<g><path style="opacity:1" fill="#82a5ce" d="M 1054.5,642.5 C 1055.5,642.414 1056.33,642.748 1057,643.5C 1057.76,645.066 1057.6,646.399 1056.5,647.5C 1055.07,646.22 1054.4,644.553 1054.5,642.5 Z"/></g>
<g><path style="opacity:1" fill="#6794c6" d="M 1056.5,649.5 C 1057.5,649.5 1058.5,649.5 1059.5,649.5C 1060.01,652.388 1059.34,654.721 1057.5,656.5C 1057.33,654.139 1056.99,651.806 1056.5,649.5 Z"/></g>
<g><path style="opacity:1" fill="#82a0cc" d="M 212.5,648.5 C 213.468,650.607 213.802,652.941 213.5,655.5C 212.5,655.5 211.5,655.5 210.5,655.5C 210.394,652.921 211.061,650.588 212.5,648.5 Z"/></g>
<g><path style="opacity:1" fill="#7097c6" d="M 1203.5,649.5 C 1204.75,652.006 1205.42,654.673 1205.5,657.5C 1204.5,657.5 1203.5,657.5 1202.5,657.5C 1202.19,654.615 1202.53,651.948 1203.5,649.5 Z"/></g>
<g><path style="opacity:1" fill="#6895c7" d="M 358.5,656.5 C 357.36,659.025 356.693,661.692 356.5,664.5C 354.631,662.365 353.964,659.698 354.5,656.5C 355.833,656.5 357.167,656.5 358.5,656.5 Z"/></g>
<g><path style="opacity:1" fill="#6593c7" d="M 1057.5,657.5 C 1058.83,657.5 1060.17,657.5 1061.5,657.5C 1062.04,660.698 1061.37,663.365 1059.5,665.5C 1059.31,662.67 1058.64,660.004 1057.5,657.5 Z"/></g>
<g><path style="opacity:1" fill="#799bca" d="M 210.5,660.5 C 211.479,663.625 211.813,666.958 211.5,670.5C 210.5,670.5 209.5,670.5 208.5,670.5C 208.357,666.599 209.024,663.265 210.5,660.5 Z"/></g>
<g><path style="opacity:1" fill="#92abd0" d="M 1205.5,662.5 C 1206.58,665.402 1207.24,668.402 1207.5,671.5C 1206.07,671.119 1205.24,670.119 1205,668.5C 1204.21,666.288 1204.38,664.288 1205.5,662.5 Z"/></g>
<g><path style="opacity:1" fill="#97afd2" d="M 356.5,667.5 C 355.833,669.833 355.167,672.167 354.5,674.5C 353.532,672.393 353.198,670.059 353.5,667.5C 354.5,667.5 355.5,667.5 356.5,667.5 Z"/></g>
<g><path style="opacity:1" fill="#6792c6" d="M 1059.5,668.5 C 1060.83,668.5 1062.17,668.5 1063.5,668.5C 1064.04,671.698 1063.37,674.365 1061.5,676.5C 1060.24,674.498 1059.58,671.831 1059.5,668.5 Z"/></g>
<g><path style="opacity:1" fill="#87a2cc" d="M 354.5,679.5 C 354.964,683.502 354.298,687.169 352.5,690.5C 351.518,687.038 351.185,683.371 351.5,679.5C 352.5,679.5 353.5,679.5 354.5,679.5 Z"/></g>
<g><path style="opacity:1" fill="#7399c8" d="M 208.5,678.5 C 209.165,681.314 209.498,684.314 209.5,687.5C 209.483,690.913 208.816,693.913 207.5,696.5C 207.211,690.409 207.545,684.409 208.5,678.5 Z"/></g>
<g><path style="opacity:1" fill="#739ac9" d="M 1207.5,681.5 C 1208.83,700.167 1208.83,718.833 1207.5,737.5C 1206.17,718.833 1206.17,700.167 1207.5,681.5 Z"/></g>
<g><path style="opacity:1" fill="#94aed2" d="M 1061.5,682.5 C 1062.5,682.5 1063.5,682.5 1064.5,682.5C 1064.82,687.032 1064.48,691.366 1063.5,695.5C 1063.66,693.143 1063.5,690.81 1063,688.5C 1062.67,689.833 1062.33,691.167 1062,692.5C 1061.5,689.183 1061.33,685.85 1061.5,682.5 Z"/></g>
<g><path style="opacity:1" fill="#7ea2cd" d="M 207.5,721.5 C 208.818,724.258 209.485,727.424 209.5,731C 209.498,734.352 209.165,737.518 208.5,740.5C 207.542,734.256 207.209,727.923 207.5,721.5 Z"/></g>
<g><path style="opacity:1" fill="#6991c4" d="M 1063.5,722.5 C 1064.8,724.223 1065.47,726.39 1065.5,729C 1065.33,731.167 1065.17,733.333 1065,735.5C 1063.99,736.337 1062.82,736.67 1061.5,736.5C 1061.65,730.464 1062.32,725.797 1063.5,722.5 Z"/></g>
<g><path style="opacity:1" fill="#7f9eca" d="M 352.5,726.5 C 353.714,729.112 354.381,733.112 354.5,738.5C 353.5,738.5 352.5,738.5 351.5,738.5C 351.183,734.298 351.517,730.298 352.5,726.5 Z"/></g>
<g><path style="opacity:1" fill="#91a8ce" d="M 1061.5,742.5 C 1062.47,744.607 1062.8,746.941 1062.5,749.5C 1061.5,749.5 1060.5,749.5 1059.5,749.5C 1059.88,747.071 1060.55,744.737 1061.5,742.5 Z"/></g>
<g><path style="opacity:1" fill="#779ac8" d="M 208.5,747.5 C 209.5,747.5 210.5,747.5 211.5,747.5C 211.813,751.042 211.479,754.375 210.5,757.5C 208.983,754.413 208.316,751.079 208.5,747.5 Z"/></g>
<g><path style="opacity:1" fill="#6f95c6" d="M 354.5,743.5 C 355.167,746.167 355.833,748.833 356.5,751.5C 353.535,751.27 352.202,749.603 352.5,746.5C 352.64,744.97 353.307,743.97 354.5,743.5 Z"/></g>
<g><path style="opacity:1" fill="#82a2cd" d="M 1207.5,745.5 C 1207.25,749.249 1206.58,752.915 1205.5,756.5C 1204.52,753.038 1204.19,749.371 1204.5,745.5C 1205.5,745.5 1206.5,745.5 1207.5,745.5 Z"/></g>
<g><path style="opacity:1" fill="#9ab0d1" d="M 356.5,755.5 C 356.392,757.514 357.058,759.18 358.5,760.5C 357.5,760.5 356.5,760.5 355.5,760.5C 355.216,758.585 355.549,756.919 356.5,755.5 Z"/></g>
<g><path style="opacity:1" fill="#6e94c5" d="M 1059.5,752.5 C 1060.73,753.152 1061.39,754.319 1061.5,756C 1062.07,759.263 1060.73,760.763 1057.5,760.5C 1058.64,757.975 1059.31,755.308 1059.5,752.5 Z"/></g>
<g><path style="opacity:1" fill="#99b0d2" d="M 1205.5,761.5 C 1205.61,764.079 1204.94,766.412 1203.5,768.5C 1202.4,767.399 1202.24,766.066 1203,764.5C 1203.24,762.881 1204.07,761.881 1205.5,761.5 Z"/></g>
<g><path style="opacity:1" fill="#a9bad7" d="M 357.5,764.5 C 358.674,765.514 359.34,766.847 359.5,768.5C 357.824,767.817 357.157,766.483 357.5,764.5 Z"/></g>
<g><path style="opacity:1" fill="#81a3cd" d="M 210.5,762.5 C 211.496,762.414 212.329,762.748 213,763.5C 213.796,766.039 213.629,768.372 212.5,770.5C 211.25,767.994 210.584,765.327 210.5,762.5 Z"/></g>
<g><path style="opacity:1" fill="#7f9ec9" d="M 1058.5,762.5 C 1059.6,763.601 1059.76,764.934 1059,766.5C 1058.58,767.756 1057.75,768.423 1056.5,768.5C 1056.6,766.297 1057.27,764.297 1058.5,762.5 Z"/></g>
<g><path style="opacity:1" fill="#85a0cb" d="M 1203.5,772.5 C 1203.75,774.858 1203.08,776.858 1201.5,778.5C 1200.54,776.735 1200.21,774.735 1200.5,772.5C 1201.5,772.5 1202.5,772.5 1203.5,772.5 Z"/></g>
<g><path style="opacity:1" fill="#729ac8" d="M 212.5,773.5 C 213.5,773.5 214.5,773.5 215.5,773.5C 215.802,776.059 215.468,778.393 214.5,780.5C 213.061,778.412 212.394,776.079 212.5,773.5 Z"/></g>
<g><path style="opacity:1" fill="#a6b6d2" d="M 361.5,779.5 C 362.401,780.29 363.068,781.29 363.5,782.5C 361.952,782.179 361.285,781.179 361.5,779.5 Z"/></g>
<g><path style="opacity:1" fill="#6d96c6" d="M 1056.5,770.5 C 1057.15,771.274 1057.48,772.274 1057.5,773.5C 1055.54,778.367 1054.21,783.367 1053.5,788.5C 1052.5,788.5 1051.5,788.5 1050.5,788.5C 1052.5,782.494 1054.5,776.494 1056.5,770.5 Z"/></g>
<g><path style="opacity:1" fill="#82a3cd" d="M 1201.5,782.5 C 1201.6,784.553 1200.93,786.22 1199.5,787.5C 1198.4,786.399 1198.24,785.066 1199,783.5C 1199.67,782.748 1200.5,782.414 1201.5,782.5 Z"/></g>
<g><path style="opacity:1" fill="#7a9fca" d="M 363.5,785.5 C 365.004,788.316 366.338,791.316 367.5,794.5C 366.5,794.5 365.5,794.5 364.5,794.5C 364.604,791.91 363.937,789.577 362.5,787.5C 362.543,786.584 362.876,785.917 363.5,785.5 Z"/></g>
<g><path style="opacity:1" fill="#86a3cc" d="M 1050.5,790.5 C 1051.6,791.601 1051.76,792.934 1051,794.5C 1048.2,800.384 1045.7,806.384 1043.5,812.5C 1042.5,812.5 1041.5,812.5 1040.5,812.5C 1043.89,805.068 1047.22,797.735 1050.5,790.5 Z"/></g>
<g><path style="opacity:1" fill="#85a2ca" d="M 367.5,796.5 C 368.906,796.973 369.573,797.973 369.5,799.5C 368.5,799.5 367.5,799.5 366.5,799.5C 366.263,798.209 366.596,797.209 367.5,796.5 Z"/></g>
<g><path style="opacity:1" fill="#aebedb" d="M 218.5,800.5 C 220.048,800.821 220.715,801.821 220.5,803.5C 219.599,802.71 218.932,801.71 218.5,800.5 Z"/></g>
<g><path style="opacity:1" fill="#608cc2" d="M 1197.5,798.5 C 1197.13,802.73 1196.13,806.73 1194.5,810.5C 1193.31,810.03 1192.64,809.03 1192.5,807.5C 1193.51,804.884 1194.35,802.218 1195,799.5C 1195.67,798.748 1196.5,798.414 1197.5,798.5 Z"/></g>
<g><path style="opacity:1" fill="#9aaed0" d="M 219.5,806.5 C 220.5,806.5 221.5,806.5 222.5,806.5C 222.768,808.099 222.434,809.432 221.5,810.5C 220.4,809.395 219.733,808.062 219.5,806.5 Z"/></g>
<g><path style="opacity:1" fill="#a2aecd" d="M 371.5,806.5 C 373.028,808.279 374.362,810.279 375.5,812.5C 374.5,812.5 373.5,812.5 372.5,812.5C 372.617,810.516 371.95,808.85 370.5,807.5C 370.624,806.893 370.957,806.56 371.5,806.5 Z"/></g>
<g><path style="opacity:1" fill="#e71b20" d="M 371.5,813.5 C 372.5,813.5 373.5,813.5 374.5,813.5C 375.167,815.833 375.833,818.167 376.5,820.5C 377.5,820.5 378.5,820.5 379.5,820.5C 379.5,820.833 379.5,821.167 379.5,821.5C 378.402,822.601 378.235,823.934 379,825.5C 379.977,827.706 381.143,829.706 382.5,831.5C 385.431,837.979 389.098,843.979 393.5,849.5C 395.811,853.462 398.478,857.129 401.5,860.5C 402.234,861.708 402.567,863.041 402.5,864.5C 403.5,864.5 404.5,864.5 405.5,864.5C 405.5,864.833 405.5,865.167 405.5,865.5C 405.427,867.027 406.094,868.027 407.5,868.5C 407.979,870.889 409.312,872.556 411.5,873.5C 412.713,876.555 414.547,879.221 417,881.5C 418.11,883.037 419.61,883.703 421.5,883.5C 421.833,884.167 422.167,884.833 422.5,885.5C 422.369,888.367 423.703,890.033 426.5,890.5C 427.5,891.167 428.5,891.833 429.5,892.5C 430.167,896.5 432.5,898.833 436.5,899.5C 437.551,900.222 438.218,901.222 438.5,902.5C 438.859,904.371 439.859,905.871 441.5,907C 444.729,909.741 448.062,912.241 451.5,914.5C 454.505,916.84 457.505,919.174 460.5,921.5C 463.285,925.116 466.619,928.282 470.5,931C 471.437,931.692 472.103,931.525 472.5,930.5C 474.815,932.142 477.149,933.808 479.5,935.5C 480.098,938.821 481.765,939.821 484.5,938.5C 486.461,939.46 488.127,940.793 489.5,942.5C 490.475,944.193 491.808,945.693 493.5,947C 498.529,949.187 503.196,952.02 507.5,955.5C 508.298,955.043 508.631,954.376 508.5,953.5C 509.167,953.833 509.833,954.167 510.5,954.5C 510.693,957.57 512.027,958.57 514.5,957.5C 514.833,957.5 515.167,957.5 515.5,957.5C 515.5,958.5 515.5,959.5 515.5,960.5C 518.073,961.219 520.573,962.219 523,963.5C 523.464,962.906 523.631,962.239 523.5,961.5C 524.167,961.833 524.833,962.167 525.5,962.5C 525.733,964.062 526.4,965.395 527.5,966.5C 524.474,971.184 521.474,975.851 518.5,980.5C 515.395,983.275 513.062,986.608 511.5,990.5C 496.394,1010.61 482.061,1031.28 468.5,1052.5C 466.1,1054.3 464.433,1056.63 463.5,1059.5C 461.5,1062.17 459.5,1064.83 457.5,1067.5C 455.559,1067.13 453.725,1066.46 452,1065.5C 451.536,1066.09 451.369,1066.76 451.5,1067.5C 450.833,1067.17 450.167,1066.83 449.5,1066.5C 449.5,1065.5 449.5,1064.5 449.5,1063.5C 446.749,1063.47 444.415,1062.47 442.5,1060.5C 441.893,1060.62 441.56,1060.96 441.5,1061.5C 441.167,1061.5 440.833,1061.5 440.5,1061.5C 440.063,1059.93 439.063,1058.76 437.5,1058C 436.563,1057.31 435.897,1057.47 435.5,1058.5C 435.167,1058.5 434.833,1058.5 434.5,1058.5C 434.238,1056.44 433.071,1055.1 431,1054.5C 430.536,1055.09 430.369,1055.76 430.5,1056.5C 429.833,1056.17 429.167,1055.83 428.5,1055.5C 428.55,1053.41 427.55,1052.08 425.5,1051.5C 424.702,1051.96 424.369,1052.62 424.5,1053.5C 423.833,1052.83 423.167,1052.17 422.5,1051.5C 422.631,1050.62 422.298,1049.96 421.5,1049.5C 420.313,1048.35 419.313,1048.35 418.5,1049.5C 417.833,1049.17 417.167,1048.83 416.5,1048.5C 415.561,1045.05 413.561,1043.72 410.5,1044.5C 410.167,1044.5 409.833,1044.5 409.5,1044.5C 409.439,1042.41 408.439,1040.91 406.5,1040C 397.827,1034.34 389.327,1028.51 381,1022.5C 380.536,1023.09 380.369,1023.76 380.5,1024.5C 378.81,1024.14 377.81,1023.14 377.5,1021.5C 373.817,1017.82 369.817,1014.49 365.5,1011.5C 356.206,1003.84 346.873,996.177 337.5,988.5C 335.833,986.167 333.833,984.167 331.5,982.5C 329.194,979.527 326.527,976.86 323.5,974.5C 322.609,973.89 321.609,973.557 320.5,973.5C 318.861,972.527 317.527,971.194 316.5,969.5C 316.833,966.5 315.5,965.167 312.5,965.5C 311.449,964.778 310.782,963.778 310.5,962.5C 309.92,960.251 308.587,958.585 306.5,957.5C 305.508,957.672 304.842,957.338 304.5,956.5C 304.833,953.5 303.5,952.167 300.5,952.5C 300.5,952.167 300.5,951.833 300.5,951.5C 300.649,950.448 300.483,949.448 300,948.5C 297.909,946.572 296.076,944.572 294.5,942.5C 293.833,942.167 293.167,941.833 292.5,941.5C 291.833,941.5 291.5,941.167 291.5,940.5C 289.937,936.382 287.604,932.716 284.5,929.5C 283.675,928.614 282.675,928.281 281.5,928.5C 281.5,928.167 281.5,927.833 281.5,927.5C 280.858,923.867 278.858,921.534 275.5,920.5C 275.5,919.833 275.167,919.5 274.5,919.5C 273.729,915.35 271.729,912.016 268.5,909.5C 268.5,909.167 268.5,908.833 268.5,908.5C 258.071,891.008 248.404,873.008 239.5,854.5C 239.863,853.817 240.196,853.15 240.5,852.5C 240.833,852.5 241.167,852.5 241.5,852.5C 243.698,852.88 245.365,852.213 246.5,850.5C 247.167,850.5 247.833,850.5 248.5,850.5C 250.898,850.741 252.898,850.074 254.5,848.5C 259.109,846.964 263.776,845.63 268.5,844.5C 274.211,844.375 279.211,842.708 283.5,839.5C 312.84,830.832 342.174,822.165 371.5,813.5 Z"/></g>
<g><path style="opacity:1" fill="#d1798c" d="M 371.5,813.5 C 371.5,812.833 371.833,812.5 372.5,812.5C 373.5,812.5 374.5,812.5 375.5,812.5C 376.621,815.31 377.955,817.977 379.5,820.5C 378.5,820.5 377.5,820.5 376.5,820.5C 375.833,818.167 375.167,815.833 374.5,813.5C 373.5,813.5 372.5,813.5 371.5,813.5 Z"/></g>
<g><path style="opacity:1" fill="#c76f87" d="M 1040.5,812.5 C 1041.5,812.5 1042.5,812.5 1043.5,812.5C 1044.17,812.5 1044.5,812.833 1044.5,813.5C 1043.5,813.5 1042.5,813.5 1041.5,813.5C 1040.83,815.833 1040.17,818.167 1039.5,820.5C 1038.5,820.5 1037.5,820.5 1036.5,820.5C 1037.98,818.596 1039.32,815.929 1040.5,812.5 Z"/></g>
<g><path style="opacity:1" fill="#e71a20" d="M 1044.5,813.5 C 1061.43,818.698 1078.43,823.698 1095.5,828.5C 1096.99,830.28 1098.99,830.946 1101.5,830.5C 1102.83,830.833 1104.17,831.167 1105.5,831.5C 1109.55,834.521 1114.22,836.187 1119.5,836.5C 1127.03,838.744 1134.7,840.744 1142.5,842.5C 1143.64,844.213 1145.3,844.88 1147.5,844.5C 1153.51,846.169 1159.51,847.836 1165.5,849.5C 1167.51,850.924 1169.85,851.59 1172.5,851.5C 1173.21,852.404 1174.21,852.737 1175.5,852.5C 1175.8,853.15 1176.14,853.817 1176.5,854.5C 1173.17,859.666 1170.51,865.166 1168.5,871C 1168.57,871.765 1168.9,872.265 1169.5,872.5C 1169.5,873.167 1169.5,873.833 1169.5,874.5C 1168.5,874.5 1167.5,874.5 1166.5,874.5C 1161.41,884.561 1155.57,894.228 1149,903.5C 1147.99,905.025 1147.49,906.692 1147.5,908.5C 1147.5,908.833 1147.5,909.167 1147.5,909.5C 1145.3,911.687 1143.14,914.021 1141,916.5C 1140.52,917.448 1140.35,918.448 1140.5,919.5C 1140.5,919.833 1140.5,920.167 1140.5,920.5C 1137.14,921.534 1135.14,923.867 1134.5,927.5C 1134.5,927.833 1134.5,928.167 1134.5,928.5C 1133.32,928.281 1132.32,928.614 1131.5,929.5C 1128.4,932.716 1126.06,936.382 1124.5,940.5C 1121.7,940.967 1120.37,942.633 1120.5,945.5C 1115.81,948.522 1112.15,952.522 1109.5,957.5C 1109.5,957.833 1109.5,958.167 1109.5,958.5C 1107.17,958.833 1105.83,960.167 1105.5,962.5C 1105.19,964.144 1104.19,965.144 1102.5,965.5C 1100.97,965.427 1099.97,966.094 1099.5,967.5C 1097.41,968.585 1096.08,970.251 1095.5,972.5C 1092.86,973.623 1091.19,975.623 1090.5,978.5C 1088.58,980.485 1086.58,982.485 1084.5,984.5C 1083.45,984.351 1082.45,984.517 1081.5,985C 1078.27,988.399 1074.94,991.565 1071.5,994.5C 1063.1,1000.36 1055.1,1006.7 1047.5,1013.5C 1044.37,1015.73 1041.7,1018.39 1039.5,1021.5C 1038.78,1022.55 1037.78,1023.22 1036.5,1023.5C 1036.44,1022.96 1036.11,1022.62 1035.5,1022.5C 1033.79,1023.89 1032.12,1025.22 1030.5,1026.5C 1028.11,1027.35 1026.77,1029.02 1026.5,1031.5C 1024.94,1031.73 1023.6,1032.4 1022.5,1033.5C 1019.44,1032.72 1017.44,1034.05 1016.5,1037.5C 1015.78,1038.55 1014.78,1039.22 1013.5,1039.5C 1012.28,1038.54 1010.95,1038.7 1009.5,1040C 1008.75,1040.67 1008.41,1041.5 1008.5,1042.5C 1007.78,1043.55 1006.78,1044.22 1005.5,1044.5C 1003.03,1043.43 1001.69,1044.43 1001.5,1047.5C 999.938,1047.73 998.605,1048.4 997.5,1049.5C 997.44,1048.96 997.107,1048.62 996.5,1048.5C 994.787,1048.88 993.787,1049.88 993.5,1051.5C 992.833,1052.17 992.167,1052.83 991.5,1053.5C 991.631,1052.62 991.298,1051.96 990.5,1051.5C 988.712,1052.28 987.712,1053.62 987.5,1055.5C 985.229,1056.68 982.895,1057.68 980.5,1058.5C 980.44,1057.96 980.107,1057.62 979.5,1057.5C 975.448,1060.21 971.115,1062.21 966.5,1063.5C 966.5,1064.5 966.5,1065.5 966.5,1066.5C 966.167,1066.5 965.833,1066.5 965.5,1066.5C 965.44,1065.96 965.107,1065.62 964.5,1065.5C 962.677,1066.75 960.677,1067.41 958.5,1067.5C 934.932,1034.04 911.598,1000.37 888.5,966.5C 889.6,965.395 890.267,964.062 890.5,962.5C 891.167,962.167 891.833,961.833 892.5,961.5C 892.369,962.239 892.536,962.906 893,963.5C 895.071,962.897 896.238,961.564 896.5,959.5C 896.833,959.5 897.167,959.5 897.5,959.5C 897.56,960.043 897.893,960.376 898.5,960.5C 900.289,959.123 902.289,958.123 904.5,957.5C 905.386,956.675 905.719,955.675 905.5,954.5C 906.833,953.833 908.167,953.167 909.5,952.5C 910.632,953.354 911.965,953.354 913.5,952.5C 917.569,950.345 921.569,948.011 925.5,945.5C 926.127,944.583 926.461,943.583 926.5,942.5C 927.873,940.793 929.539,939.46 931.5,938.5C 930.537,939.363 930.537,940.03 931.5,940.5C 934.513,939.144 936.847,937.144 938.5,934.5C 939.167,933.833 939.833,933.167 940.5,932.5C 940.369,933.239 940.536,933.906 941,934.5C 944.023,932.302 946.856,929.969 949.5,927.5C 951.858,925.471 954.192,923.471 956.5,921.5C 959.109,920.557 961.109,918.89 962.5,916.5C 966.311,913.75 969.978,910.75 973.5,907.5C 977.07,905.719 979.737,903.052 981.5,899.5C 983.587,898.415 984.92,896.749 985.5,894.5C 985.5,893.167 986.167,892.5 987.5,892.5C 991.144,891.523 993.477,889.189 994.5,885.5C 997.044,884.292 998.378,882.292 998.5,879.5C 1001.81,878.839 1003.81,876.839 1004.5,873.5C 1005.91,873.027 1006.57,872.027 1006.5,870.5C 1006.5,870.167 1006.5,869.833 1006.5,869.5C 1008.91,869.306 1009.91,867.973 1009.5,865.5C 1010.17,865.5 1010.5,865.167 1010.5,864.5C 1013.14,864.512 1014.48,863.179 1014.5,860.5C 1017.5,856.5 1020.5,852.5 1023.5,848.5C 1029.48,840.523 1034.15,831.857 1037.5,822.5C 1037.17,821.833 1036.83,821.167 1036.5,820.5C 1037.5,820.5 1038.5,820.5 1039.5,820.5C 1040.17,818.167 1040.83,815.833 1041.5,813.5C 1042.5,813.5 1043.5,813.5 1044.5,813.5 Z"/></g>
<g><path style="opacity:1" fill="#6892c5" d="M 1194.5,812.5 C 1192.07,820.061 1189.4,826.727 1186.5,832.5C 1185.88,832.083 1185.54,831.416 1185.5,830.5C 1187.68,824.607 1189.34,818.607 1190.5,812.5C 1191.83,812.5 1193.17,812.5 1194.5,812.5 Z"/></g>
<g><path style="opacity:1" fill="#ce6c7f" d="M 1037.5,822.5 C 1034.15,831.857 1029.48,840.523 1023.5,848.5C 1023.5,847.833 1023.5,847.167 1023.5,846.5C 1027.03,839.047 1031.03,831.881 1035.5,825C 1034.39,823.187 1035.06,822.354 1037.5,822.5 Z"/></g>
<g><path style="opacity:1" fill="#c23551" d="M 1095.5,828.5 C 1097.79,828.595 1099.79,829.262 1101.5,830.5C 1098.99,830.946 1096.99,830.28 1095.5,828.5 Z"/></g>
<g><path style="opacity:1" fill="#d98794" d="M 379.5,821.5 C 380.775,824.61 382.442,827.943 384.5,831.5C 383.833,831.5 383.167,831.5 382.5,831.5C 381.143,829.706 379.977,827.706 379,825.5C 378.235,823.934 378.402,822.601 379.5,821.5 Z"/></g>
<g><path style="opacity:1" fill="#6790c4" d="M 225.5,825.5 C 226.5,825.5 227.5,825.5 228.5,825.5C 228.5,826.833 228.5,828.167 228.5,829.5C 229.5,829.5 230.5,829.5 231.5,829.5C 232.363,833.503 233.363,837.503 234.5,841.5C 234.457,842.416 234.124,843.083 233.5,843.5C 230.841,837.593 228.174,831.593 225.5,825.5 Z"/></g>
<g><path style="opacity:1" fill="#d22c42" d="M 1105.5,831.5 C 1110.45,832.653 1115.12,834.32 1119.5,836.5C 1114.22,836.187 1109.55,834.521 1105.5,831.5 Z"/></g>
<g><path style="opacity:1" fill="#90abd0" d="M 1186.5,834.5 C 1184.24,840.505 1181.57,846.172 1178.5,851.5C 1180.29,845.861 1181.96,840.194 1183.5,834.5C 1184.5,834.5 1185.5,834.5 1186.5,834.5 Z"/></g>
<g><path style="opacity:1" fill="#d02f46" d="M 283.5,839.5 C 279.211,842.708 274.211,844.375 268.5,844.5C 273.329,842.599 278.329,840.933 283.5,839.5 Z"/></g>
<g><path style="opacity:1" fill="#b83758" d="M 1142.5,842.5 C 1144.4,842.796 1146.07,843.463 1147.5,844.5C 1145.3,844.88 1143.64,844.213 1142.5,842.5 Z"/></g>
<g><path style="opacity:1" fill="#d2596a" d="M 382.5,831.5 C 383.167,831.5 383.833,831.5 384.5,831.5C 387.256,836.683 390.256,841.683 393.5,846.5C 393.5,847.5 393.5,848.5 393.5,849.5C 389.098,843.979 385.431,837.979 382.5,831.5 Z"/></g>
<g><path style="opacity:1" fill="#cf8da0" d="M 1023.5,846.5 C 1023.5,847.167 1023.5,847.833 1023.5,848.5C 1020.5,852.5 1017.5,856.5 1014.5,860.5C 1014.2,859.85 1013.86,859.183 1013.5,858.5C 1016.89,854.391 1020.22,850.391 1023.5,846.5 Z"/></g>
<g><path style="opacity:1" fill="#c23755" d="M 254.5,848.5 C 252.898,850.074 250.898,850.741 248.5,850.5C 250.102,848.926 252.102,848.259 254.5,848.5 Z"/></g>
<g><path style="opacity:1" fill="#7a4e85" d="M 1165.5,849.5 C 1168.15,849.41 1170.49,850.076 1172.5,851.5C 1169.85,851.59 1167.51,850.924 1165.5,849.5 Z"/></g>
<g><path style="opacity:1" fill="#8ca6ce" d="M 235.5,849.5 C 236.5,849.5 237.5,849.5 238.5,849.5C 238.5,850.5 238.5,851.5 238.5,852.5C 238.5,853.167 238.167,853.5 237.5,853.5C 236.833,852.167 236.167,850.833 235.5,849.5 Z"/></g>
<g><path style="opacity:1" fill="#b1385d" d="M 246.5,850.5 C 245.365,852.213 243.698,852.88 241.5,852.5C 242.93,851.463 244.597,850.796 246.5,850.5 Z"/></g>
<g><path style="opacity:1" fill="#d9919f" d="M 393.5,846.5 C 396.051,850.734 399.051,854.734 402.5,858.5C 402.137,859.183 401.804,859.85 401.5,860.5C 398.478,857.129 395.811,853.462 393.5,849.5C 393.5,848.5 393.5,847.5 393.5,846.5 Z"/></g>
<g><path style="opacity:1" fill="#d67887" d="M 1175.5,852.5 C 1176.5,852.5 1177.5,852.5 1178.5,852.5C 1177.21,857.25 1175.21,861.75 1172.5,866C 1172.83,866.333 1173.17,866.667 1173.5,867C 1172.25,868.952 1170.92,870.785 1169.5,872.5C 1168.9,872.265 1168.57,871.765 1168.5,871C 1170.51,865.166 1173.17,859.666 1176.5,854.5C 1176.14,853.817 1175.8,853.15 1175.5,852.5 Z"/></g>
<g><path style="opacity:1" fill="#d78f9d" d="M 401.5,860.5 C 403.5,861.167 404.833,862.5 405.5,864.5C 404.5,864.5 403.5,864.5 402.5,864.5C 402.567,863.041 402.234,861.708 401.5,860.5 Z"/></g>
<g><path style="opacity:1" fill="#cc8195" d="M 1014.5,860.5 C 1014.48,863.179 1013.14,864.512 1010.5,864.5C 1011.17,862.5 1012.5,861.167 1014.5,860.5 Z"/></g>
<g><path style="opacity:1" fill="#d88491" d="M 405.5,865.5 C 407.048,865.821 407.715,866.821 407.5,868.5C 406.094,868.027 405.427,867.027 405.5,865.5 Z"/></g>
<g><path style="opacity:1" fill="#cd96a9" d="M 1009.5,865.5 C 1009.91,867.973 1008.91,869.306 1006.5,869.5C 1007.51,868.128 1008.51,866.795 1009.5,865.5 Z"/></g>
<g><path style="opacity:1" fill="#d88492" d="M 407.5,868.5 C 409.929,869.265 411.262,870.931 411.5,873.5C 409.312,872.556 407.979,870.889 407.5,868.5 Z"/></g>
<g><path style="opacity:1" fill="#c57c97" d="M 1006.5,870.5 C 1006.57,872.027 1005.91,873.027 1004.5,873.5C 1004.29,871.821 1004.95,870.821 1006.5,870.5 Z"/></g>
<g><path style="opacity:1" fill="#cd7d91" d="M 1004.5,873.5 C 1003.81,876.839 1001.81,878.839 998.5,879.5C 999.855,876.812 1001.85,874.812 1004.5,873.5 Z"/></g>
<g><path style="opacity:1" fill="#d87a8a" d="M 411.5,873.5 C 414.85,876.837 418.183,880.17 421.5,883.5C 419.61,883.703 418.11,883.037 417,881.5C 414.547,879.221 412.713,876.555 411.5,873.5 Z"/></g>
<g><path style="opacity:1" fill="#d093a4" d="M 998.5,879.5 C 998.378,882.292 997.044,884.292 994.5,885.5C 994.167,885.5 993.833,885.5 993.5,885.5C 994.19,882.623 995.857,880.623 998.5,879.5 Z"/></g>
<g><path style="opacity:1" fill="#d17e8f" d="M 238.5,852.5 C 239.167,852.5 239.833,852.5 240.5,852.5C 240.196,853.15 239.863,853.817 239.5,854.5C 248.404,873.008 258.071,891.008 268.5,908.5C 266.255,908.459 265.588,907.625 266.5,906C 253.641,888.6 243.974,871.1 237.5,853.5C 238.167,853.5 238.5,853.167 238.5,852.5 Z"/></g>
<g><path style="opacity:1" fill="#d58494" d="M 422.5,885.5 C 424.893,886.353 426.226,888.019 426.5,890.5C 423.703,890.033 422.369,888.367 422.5,885.5 Z"/></g>
<g><path style="opacity:1" fill="#d76777" d="M 1169.5,874.5 C 1163.32,885.27 1156.65,895.77 1149.5,906C 1150.41,907.625 1149.75,908.459 1147.5,908.5C 1147.49,906.692 1147.99,905.025 1149,903.5C 1155.57,894.228 1161.41,884.561 1166.5,874.5C 1167.5,874.5 1168.5,874.5 1169.5,874.5 Z"/></g>
<g><path style="opacity:1" fill="#faf1f1" d="M 1072.5,925.5 C 1073.58,927.587 1075.25,928.92 1077.5,929.5C 1078.5,930.167 1079.5,930.833 1080.5,931.5C 1081.49,933.026 1082.99,933.693 1085,933.5C 1086.56,933.397 1088.06,933.063 1089.5,932.5C 1090.3,932.957 1090.63,933.624 1090.5,934.5C 1082.81,942.351 1074.65,949.684 1066,956.5C 1065.5,956.167 1065,955.833 1064.5,955.5C 1065.67,953.833 1066.83,952.167 1068,950.5C 1068.8,948.741 1068.63,947.074 1067.5,945.5C 1060.42,939.746 1053.09,934.413 1045.5,929.5C 1039.28,933.379 1033.61,938.046 1028.5,943.5C 1027.27,944.651 1027.27,945.817 1028.5,947C 1035.45,951.615 1042.12,956.615 1048.5,962C 1050.5,962.667 1052.5,962.667 1054.5,962C 1057.11,960.519 1059.78,959.352 1062.5,958.5C 1062.65,959.552 1062.48,960.552 1062,961.5C 1058,964.335 1054.5,967.668 1051.5,971.5C 1049.25,972.08 1047.58,973.413 1046.5,975.5C 1043.83,977.833 1041.17,980.167 1038.5,982.5C 1037.17,982.5 1036.5,981.833 1036.5,980.5C 1036.74,978.533 1036.41,976.699 1035.5,975C 1019.83,963.333 1004.17,951.667 988.5,940C 987.127,939.125 985.627,938.625 984,938.5C 980.602,939.454 977.435,940.787 974.5,942.5C 974.351,941.448 974.517,940.448 975,939.5C 984.017,930.982 993.184,922.649 1002.5,914.5C 1003.5,914.833 1004.17,915.5 1004.5,916.5C 1001.13,918.683 999.967,921.683 1001,925.5C 1007.08,931.114 1013.58,936.114 1020.5,940.5C 1023.69,942.056 1026.02,941.056 1027.5,937.5C 1030.83,933.336 1034.66,929.669 1039,926.5C 1039.75,925.365 1039.58,924.365 1038.5,923.5C 1031.97,918.473 1025.31,913.64 1018.5,909C 1017.17,908.333 1015.83,908.333 1014.5,909C 1011.89,910.481 1009.22,911.648 1006.5,912.5C 1006.28,911.325 1006.61,910.325 1007.5,909.5C 1015.35,901.817 1023.35,894.317 1031.5,887C 1033.02,885.991 1034.69,885.491 1036.5,885.5C 1035.86,887.76 1034.69,889.76 1033,891.5C 1032.33,892.833 1032.33,894.167 1033,895.5C 1045.78,906.124 1058.94,916.124 1072.5,925.5 Z"/></g>
<g><path style="opacity:1" fill="#faf1f0" d="M 403.5,914.5 C 400.344,917.996 398.011,921.996 396.5,926.5C 393.166,929.822 390.833,933.822 389.5,938.5C 387.331,940.34 385.998,942.674 385.5,945.5C 385.167,945.5 384.833,945.5 384.5,945.5C 382.623,946.829 382.456,948.162 384,949.5C 389.172,948.482 394.005,946.815 398.5,944.5C 398.833,944.5 399.167,944.5 399.5,944.5C 405.63,943.07 411.797,941.736 418,940.5C 419.681,940.392 420.848,939.725 421.5,938.5C 426.889,935.937 432.556,934.77 438.5,935C 443.37,939.702 448.037,944.535 452.5,949.5C 449.833,950.833 447.167,952.167 444.5,953.5C 428.217,964.452 412.217,975.785 396.5,987.5C 394.938,989.372 393.938,991.705 393.5,994.5C 392.274,992.722 390.607,991.722 388.5,991.5C 382.202,985.703 376.035,979.703 370,973.5C 369.517,972.552 369.351,971.552 369.5,970.5C 371.818,971.709 374.151,973.043 376.5,974.5C 377.449,975.152 378.615,975.486 380,975.5C 382.008,975.693 383.508,975.026 384.5,973.5C 394.586,965.945 404.919,958.611 415.5,951.5C 417.853,950.66 419.853,949.326 421.5,947.5C 423.764,945.686 426.097,943.853 428.5,942C 421.61,942.349 414.943,943.849 408.5,946.5C 404.083,946.271 400.083,947.271 396.5,949.5C 384.386,952.319 372.386,955.319 360.5,958.5C 359.5,958.5 358.5,958.5 357.5,958.5C 358.167,956.167 358.833,953.833 359.5,951.5C 368.531,935.623 377.864,919.956 387.5,904.5C 387.167,904.167 386.833,903.833 386.5,903.5C 371.483,913.341 356.816,923.675 342.5,934.5C 341.353,936.765 341.186,939.098 342,941.5C 343.883,942.653 344.716,944.319 344.5,946.5C 343.448,946.649 342.448,946.483 341.5,946C 336.297,940.965 331.297,935.798 326.5,930.5C 327.999,929.506 329.666,929.506 331.5,930.5C 335.342,931.446 339.008,930.779 342.5,928.5C 356.99,917.755 371.657,907.255 386.5,897C 387.804,896.196 388.471,895.029 388.5,893.5C 387.205,891.19 385.871,888.857 384.5,886.5C 385,886.167 385.5,885.833 386,885.5C 393.92,891.415 401.253,898.082 408,905.5C 407.087,908.659 405.587,911.659 403.5,914.5 Z"/></g>
<g><path style="opacity:1" fill="#d56c7b" d="M 993.5,885.5 C 993.833,885.5 994.167,885.5 994.5,885.5C 993.477,889.189 991.144,891.523 987.5,892.5C 988.656,889.43 990.656,887.097 993.5,885.5 Z"/></g>
<g><path style="opacity:1" fill="#d7808e" d="M 429.5,892.5 C 432.061,894.64 434.395,896.973 436.5,899.5C 432.5,898.833 430.167,896.5 429.5,892.5 Z"/></g>
<g><path style="opacity:1" fill="#cc99aa" d="M 985.5,894.5 C 984.92,896.749 983.587,898.415 981.5,899.5C 980.833,899.5 980.167,899.5 979.5,899.5C 980.761,896.939 982.761,895.272 985.5,894.5 Z"/></g>
<g><path style="opacity:1" fill="#cd5067" d="M 979.5,899.5 C 980.167,899.5 980.833,899.5 981.5,899.5C 979.737,903.052 977.07,905.719 973.5,907.5C 973.5,906.833 973.5,906.167 973.5,905.5C 975.424,903.515 977.424,901.515 979.5,899.5 Z"/></g>
<g><path style="opacity:1" fill="#d68896" d="M 438.5,902.5 C 439.583,902.539 440.583,902.873 441.5,903.5C 444.855,907.187 448.189,910.853 451.5,914.5C 448.062,912.241 444.729,909.741 441.5,907C 439.859,905.871 438.859,904.371 438.5,902.5 Z"/></g>
<g><path style="opacity:1" fill="#cd98a9" d="M 973.5,905.5 C 973.5,906.167 973.5,906.833 973.5,907.5C 969.978,910.75 966.311,913.75 962.5,916.5C 963.082,915.069 963.915,913.736 965,912.5C 968.023,910.302 970.856,907.969 973.5,905.5 Z"/></g>
<g><path style="opacity:1" fill="#c7889e" d="M 268.5,909.5 C 271.729,912.016 273.729,915.35 274.5,919.5C 272.241,916.559 269.908,913.559 267.5,910.5C 267.624,909.893 267.957,909.56 268.5,909.5 Z"/></g>
<g><path style="opacity:1" fill="#d095a7" d="M 962.5,916.5 C 961.109,918.89 959.109,920.557 956.5,921.5C 957.865,919.14 959.865,917.473 962.5,916.5 Z"/></g>
<g><path style="opacity:1" fill="#d796a5" d="M 1147.5,909.5 C 1148.04,909.56 1148.38,909.893 1148.5,910.5C 1146.1,913.889 1143.44,916.889 1140.5,919.5C 1140.35,918.448 1140.52,917.448 1141,916.5C 1143.14,914.021 1145.3,911.687 1147.5,909.5 Z"/></g>
<g><path style="opacity:1" fill="#f17472" d="M 403.5,914.5 C 402.125,918.253 400.458,921.92 398.5,925.5C 398.043,926.298 397.376,926.631 396.5,926.5C 398.011,921.996 400.344,917.996 403.5,914.5 Z"/></g>
<g><path style="opacity:1" fill="#d0798b" d="M 275.5,920.5 C 278.858,921.534 280.858,923.867 281.5,927.5C 279.173,925.502 277.173,923.168 275.5,920.5 Z"/></g>
<g><path style="opacity:1" fill="#ef716f" d="M 1072.5,925.5 C 1074.75,926.08 1076.42,927.413 1077.5,929.5C 1075.25,928.92 1073.58,927.587 1072.5,925.5 Z"/></g>
<g><path style="opacity:1" fill="#cc97a9" d="M 956.5,921.5 C 954.192,923.471 951.858,925.471 949.5,927.5C 948.833,927.5 948.167,927.5 947.5,927.5C 949.728,924.425 952.728,922.425 956.5,921.5 Z"/></g>
<g><path style="opacity:1" fill="#d78393" d="M 1140.5,920.5 C 1138.83,923.168 1136.83,925.502 1134.5,927.5C 1135.14,923.867 1137.14,921.534 1140.5,920.5 Z"/></g>
<g><path style="opacity:1" fill="#f8afae" d="M 331.5,930.5 C 329.666,929.506 327.999,929.506 326.5,930.5C 324.952,930.179 324.285,929.179 324.5,927.5C 327.491,927.166 329.824,928.166 331.5,930.5 Z"/></g>
<g><path style="opacity:1" fill="#d67e8c" d="M 460.5,921.5 C 464.797,924.134 468.797,927.134 472.5,930.5C 472.103,931.525 471.437,931.692 470.5,931C 466.619,928.282 463.285,925.116 460.5,921.5 Z"/></g>
<g><path style="opacity:1" fill="#f8c4c3" d="M 1090.5,934.5 C 1090.63,933.624 1090.3,932.957 1089.5,932.5C 1088.06,933.063 1086.56,933.397 1085,933.5C 1082.99,933.693 1081.49,933.026 1080.5,931.5C 1082.78,932.39 1085.12,932.556 1087.5,932C 1089.53,930.121 1091.86,928.954 1094.5,928.5C 1094.38,931.292 1093.04,933.292 1090.5,934.5 Z"/></g>
<g><path style="opacity:1" fill="#d24b61" d="M 947.5,927.5 C 948.167,927.5 948.833,927.5 949.5,927.5C 946.856,929.969 944.023,932.302 941,934.5C 940.536,933.906 940.369,933.239 940.5,932.5C 942.649,930.591 944.982,928.924 947.5,927.5 Z"/></g>
<g><path style="opacity:1" fill="#d27b8d" d="M 281.5,928.5 C 282.675,928.281 283.675,928.614 284.5,929.5C 287.604,932.716 289.937,936.382 291.5,940.5C 287.616,937.016 284.283,933.016 281.5,928.5 Z"/></g>
<g><path style="opacity:1" fill="#d98896" d="M 1134.5,928.5 C 1131.72,933.016 1128.38,937.016 1124.5,940.5C 1126.06,936.382 1128.4,932.716 1131.5,929.5C 1132.32,928.614 1133.32,928.281 1134.5,928.5 Z"/></g>
<g><path style="opacity:1" fill="#d27486" d="M 938.5,934.5 C 936.847,937.144 934.513,939.144 931.5,940.5C 930.537,940.03 930.537,939.363 931.5,938.5C 933.644,936.849 935.978,935.515 938.5,934.5 Z"/></g>
<g><path style="opacity:1" fill="#d97e8c" d="M 479.5,935.5 C 481.149,936.473 482.816,937.473 484.5,938.5C 481.765,939.821 480.098,938.821 479.5,935.5 Z"/></g>
<g><path style="opacity:1" fill="#f8bab8" d="M 421.5,938.5 C 420.848,939.725 419.681,940.392 418,940.5C 411.797,941.736 405.63,943.07 399.5,944.5C 401.924,943.017 404.591,941.85 407.5,941C 412.206,940.271 416.873,939.438 421.5,938.5 Z"/></g>
<g><path style="opacity:1" fill="#f49f9e" d="M 1027.5,937.5 C 1026.02,941.056 1023.69,942.056 1020.5,940.5C 1023.04,939.957 1025.37,938.957 1027.5,937.5 Z"/></g>
<g><path style="opacity:1" fill="#ef7070" d="M 389.5,938.5 C 388.921,941.331 387.588,943.664 385.5,945.5C 385.998,942.674 387.331,940.34 389.5,938.5 Z"/></g>
<g><path style="opacity:1" fill="#db8491" d="M 1124.5,940.5 C 1124.05,941.458 1123.38,942.292 1122.5,943C 1123.41,944.625 1122.75,945.459 1120.5,945.5C 1120.37,942.633 1121.7,940.967 1124.5,940.5 Z"/></g>
<g><path style="opacity:1" fill="#ca97ab" d="M 292.5,941.5 C 293.167,941.833 293.833,942.167 294.5,942.5C 294.5,943.5 294.5,944.5 294.5,945.5C 292.896,944.713 292.229,943.38 292.5,941.5 Z"/></g>
<g><path style="opacity:1" fill="#f7b8b7" d="M 408.5,946.5 C 404.733,948.027 400.733,949.027 396.5,949.5C 400.083,947.271 404.083,946.271 408.5,946.5 Z"/></g>
<g><path style="opacity:1" fill="#db4b57" d="M 926.5,942.5 C 926.461,943.583 926.127,944.583 925.5,945.5C 921.569,948.011 917.569,950.345 913.5,952.5C 913.5,951.5 913.5,950.5 913.5,949.5C 917.949,947.353 922.283,945.019 926.5,942.5 Z"/></g>
<g><path style="opacity:1" fill="#f7b8b7" d="M 398.5,944.5 C 394.005,946.815 389.172,948.482 384,949.5C 382.456,948.162 382.623,946.829 384.5,945.5C 384.62,946.586 385.287,947.253 386.5,947.5C 390.345,945.872 394.345,944.872 398.5,944.5 Z"/></g>
<g><path style="opacity:1" fill="#d16778" d="M 294.5,942.5 C 296.076,944.572 297.909,946.572 300,948.5C 300.483,949.448 300.649,950.448 300.5,951.5C 297.963,950.024 295.963,948.024 294.5,945.5C 294.5,944.5 294.5,943.5 294.5,942.5 Z"/></g>
<g><path style="opacity:1" fill="#f49c9a" d="M 421.5,947.5 C 419.853,949.326 417.853,950.66 415.5,951.5C 416.802,949.178 418.802,947.845 421.5,947.5 Z"/></g>
<g><path style="opacity:1" fill="#da5c69" d="M 489.5,942.5 C 495.938,946.015 502.272,949.682 508.5,953.5C 508.631,954.376 508.298,955.043 507.5,955.5C 503.196,952.02 498.529,949.187 493.5,947C 491.808,945.693 490.475,944.193 489.5,942.5 Z"/></g>
<g><path style="opacity:1" fill="#f8cdcd" d="M 452.5,949.5 C 454.812,951.146 456.812,953.146 458.5,955.5C 457.277,956.614 455.944,956.781 454.5,956C 451.731,952.681 448.397,951.848 444.5,953.5C 447.167,952.167 449.833,950.833 452.5,949.5 Z"/></g>
<g><path style="opacity:1" fill="#d48c9a" d="M 913.5,949.5 C 913.5,950.5 913.5,951.5 913.5,952.5C 911.965,953.354 910.632,953.354 909.5,952.5C 910.926,951.659 912.26,950.659 913.5,949.5 Z"/></g>
<g><path style="opacity:1" fill="#d96a76" d="M 1120.5,945.5 C 1118.27,949.413 1115.6,953.08 1112.5,956.5C 1111.58,957.127 1110.58,957.461 1109.5,957.5C 1112.15,952.522 1115.81,948.522 1120.5,945.5 Z"/></g>
<g><path style="opacity:1" fill="#ca8398" d="M 300.5,952.5 C 303.5,952.167 304.833,953.5 304.5,956.5C 302.5,955.833 301.167,954.5 300.5,952.5 Z"/></g>
<g><path style="opacity:1" fill="#f7b4b4" d="M 359.5,951.5 C 358.833,953.833 358.167,956.167 357.5,958.5C 358.5,958.5 359.5,958.5 360.5,958.5C 359.01,960.28 357.01,960.946 354.5,960.5C 355.39,957.052 357.057,954.052 359.5,951.5 Z"/></g>
<g><path style="opacity:1" fill="#d95663" d="M 510.5,954.5 C 512.122,955.122 513.455,956.122 514.5,957.5C 512.027,958.57 510.693,957.57 510.5,954.5 Z"/></g>
<g><path style="opacity:1" fill="#d46170" d="M 905.5,954.5 C 905.719,955.675 905.386,956.675 904.5,957.5C 902.289,958.123 900.289,959.123 898.5,960.5C 897.893,960.376 897.56,960.043 897.5,959.5C 900.034,957.831 902.701,956.164 905.5,954.5 Z"/></g>
<g><path style="opacity:1" fill="#d88c9c" d="M 1109.5,958.5 C 1109.04,960.773 1107.71,962.106 1105.5,962.5C 1105.83,960.167 1107.17,958.833 1109.5,958.5 Z"/></g>
<g><path style="opacity:1" fill="#c88198" d="M 306.5,957.5 C 308.587,958.585 309.92,960.251 310.5,962.5C 307.516,962.213 306.183,960.546 306.5,957.5 Z"/></g>
<g><path style="opacity:1" fill="#dc5e6a" d="M 515.5,957.5 C 518.154,958.811 520.821,960.145 523.5,961.5C 523.631,962.239 523.464,962.906 523,963.5C 520.573,962.219 518.073,961.219 515.5,960.5C 515.5,959.5 515.5,958.5 515.5,957.5 Z"/></g>
<g><path style="opacity:1" fill="#d66b7b" d="M 896.5,959.5 C 896.238,961.564 895.071,962.897 893,963.5C 892.536,962.906 892.369,962.239 892.5,961.5C 893.833,960.833 895.167,960.167 896.5,959.5 Z"/></g>
<g><path style="opacity:1" fill="#ce7a8f" d="M 525.5,962.5 C 527.179,962.285 528.179,962.952 528.5,964.5C 528.672,965.492 528.338,966.158 527.5,966.5C 526.4,965.395 525.733,964.062 525.5,962.5 Z"/></g>
<g><path style="opacity:1" fill="#c66e88" d="M 890.5,962.5 C 890.267,964.062 889.6,965.395 888.5,966.5C 887.662,966.158 887.328,965.492 887.5,964.5C 887.821,962.952 888.821,962.285 890.5,962.5 Z"/></g>
<g><path style="opacity:1" fill="#cc8396" d="M 312.5,965.5 C 315.5,965.167 316.833,966.5 316.5,969.5C 314.736,968.674 313.402,967.341 312.5,965.5 Z"/></g>
<g><path style="opacity:1" fill="#0a64af" d="M 528.5,964.5 C 533.098,966.698 537.765,968.698 542.5,970.5C 542.5,971.5 542.5,972.5 542.5,973.5C 546.817,974.74 550.984,976.407 555,978.5C 555.765,978.43 556.265,978.097 556.5,977.5C 561.966,979.451 567.633,980.951 573.5,982C 573.167,982.333 572.833,982.667 572.5,983C 594.483,989.819 617.483,995.319 641.5,999.5C 641.791,1000.65 642.624,1001.32 644,1001.5C 645.07,1001.47 645.903,1001.14 646.5,1000.5C 653.167,1001.17 659.833,1001.83 666.5,1002.5C 666.5,1003.5 666.5,1004.5 666.5,1005.5C 670.371,1005.81 674.038,1005.48 677.5,1004.5C 681.833,1004.5 686.167,1004.5 690.5,1004.5C 695.96,1005.83 701.793,1006.5 708,1006.5C 714.207,1006.5 720.04,1005.83 725.5,1004.5C 729.833,1004.5 734.167,1004.5 738.5,1004.5C 741.625,1005.48 744.958,1005.81 748.5,1005.5C 748.5,1004.5 748.5,1003.5 748.5,1002.5C 750.833,1002.5 753.167,1002.5 755.5,1002.5C 757.948,1003.47 760.615,1003.81 763.5,1003.5C 763.5,1002.5 763.5,1001.5 763.5,1000.5C 768.493,1000.08 773.493,999.751 778.5,999.5C 780.265,1000.46 782.265,1000.79 784.5,1000.5C 784.5,999.5 784.5,998.5 784.5,997.5C 802.396,994.186 820.063,990.019 837.5,985C 854.466,979.021 871.132,972.188 887.5,964.5C 887.328,965.492 887.662,966.158 888.5,966.5C 911.598,1000.37 934.932,1034.04 958.5,1067.5C 958.5,1068.17 958.5,1068.83 958.5,1069.5C 952.13,1073.12 945.464,1076.46 938.5,1079.5C 936.831,1078.34 934.997,1078.34 933,1079.5C 930.757,1080.51 928.924,1081.85 927.5,1083.5C 918.048,1087.85 908.382,1091.68 898.5,1095C 889.306,1098.07 879.973,1100.57 870.5,1102.5C 868.821,1102.29 867.821,1102.95 867.5,1104.5C 852.565,1108.39 837.565,1111.72 822.5,1114.5C 821.377,1113.24 820.711,1113.58 820.5,1115.5C 818.833,1115.5 817.167,1115.5 815.5,1115.5C 814.081,1114.55 812.415,1114.22 810.5,1114.5C 810.5,1115.5 810.5,1116.5 810.5,1117.5C 808.833,1117.5 807.167,1117.5 805.5,1117.5C 804.903,1116.86 804.07,1116.53 803,1116.5C 801.624,1116.68 800.791,1117.35 800.5,1118.5C 799.167,1118.5 797.833,1118.5 796.5,1118.5C 794.372,1117.37 792.039,1117.2 789.5,1118C 788.748,1118.67 788.414,1119.5 788.5,1120.5C 787.167,1120.5 785.833,1120.5 784.5,1120.5C 782.393,1119.53 780.059,1119.2 777.5,1119.5C 777.5,1120.5 777.5,1121.5 777.5,1122.5C 769.174,1122.98 760.84,1123.31 752.5,1123.5C 749.92,1122.88 747.253,1122.55 744.5,1122.5C 741.731,1122.53 739.397,1123.2 737.5,1124.5C 717.833,1124.5 698.167,1124.5 678.5,1124.5C 676.603,1123.2 674.269,1122.53 671.5,1122.5C 668.747,1122.55 666.08,1122.88 663.5,1123.5C 660.5,1123.5 657.5,1123.5 654.5,1123.5C 653.848,1122.27 652.681,1121.61 651,1121.5C 649.615,1121.51 648.449,1121.85 647.5,1122.5C 644.5,1122.5 641.5,1122.5 638.5,1122.5C 638.5,1121.5 638.5,1120.5 638.5,1119.5C 635.941,1119.2 633.607,1119.53 631.5,1120.5C 629.833,1120.5 628.167,1120.5 626.5,1120.5C 626.423,1119.25 625.756,1118.42 624.5,1118C 622.613,1117.22 620.946,1117.39 619.5,1118.5C 578.458,1113.28 538.792,1103.28 500.5,1088.5C 500.586,1087.5 500.252,1086.67 499.5,1086C 496.232,1084.85 492.899,1084.02 489.5,1083.5C 485.092,1082.47 480.759,1081.13 476.5,1079.5C 469.777,1076.51 463.444,1073.18 457.5,1069.5C 457.5,1068.83 457.5,1068.17 457.5,1067.5C 459.5,1064.83 461.5,1062.17 463.5,1059.5C 465.877,1057.77 467.544,1055.44 468.5,1052.5C 482.061,1031.28 496.394,1010.61 511.5,990.5C 512.825,989.047 513.658,989.381 514,991.5C 514.972,987.564 516.472,983.897 518.5,980.5C 521.474,975.851 524.474,971.184 527.5,966.5C 528.338,966.158 528.672,965.492 528.5,964.5 Z"/></g>
<g><path style="opacity:1" fill="#d98c98" d="M 1102.5,965.5 C 1102.45,967.632 1101.45,968.965 1099.5,969.5C 1099.5,968.833 1099.5,968.167 1099.5,967.5C 1099.97,966.094 1100.97,965.427 1102.5,965.5 Z"/></g>
<g><path style="opacity:1" fill="#d4455b" d="M 1099.5,967.5 C 1099.5,968.167 1099.5,968.833 1099.5,969.5C 1098.74,971.262 1097.4,972.262 1095.5,972.5C 1096.08,970.251 1097.41,968.585 1099.5,967.5 Z"/></g>
<g><path style="opacity:1" fill="#6e96c7" d="M 542.5,970.5 C 547.48,972.323 552.147,974.657 556.5,977.5C 556.265,978.097 555.765,978.43 555,978.5C 550.984,976.407 546.817,974.74 542.5,973.5C 542.5,972.5 542.5,971.5 542.5,970.5 Z"/></g>
<g><path style="opacity:1" fill="#f17475" d="M 1051.5,971.5 C 1050.42,973.587 1048.75,974.92 1046.5,975.5C 1047.58,973.413 1049.25,972.08 1051.5,971.5 Z"/></g>
<g><path style="opacity:1" fill="#ca9db2" d="M 320.5,973.5 C 321.609,973.557 322.609,973.89 323.5,974.5C 323.5,975.5 323.5,976.5 323.5,977.5C 322.282,976.269 320.949,975.102 319.5,974C 319.728,973.601 320.062,973.435 320.5,973.5 Z"/></g>
<g><path style="opacity:1" fill="#f4a6a6" d="M 384.5,973.5 C 383.508,975.026 382.008,975.693 380,975.5C 378.615,975.486 377.449,975.152 376.5,974.5C 379.237,974.599 381.904,974.265 384.5,973.5 Z"/></g>
<g><path style="opacity:1" fill="#d48e9e" d="M 1095.5,972.5 C 1094.74,975.394 1093.08,977.394 1090.5,978.5C 1091.19,975.623 1092.86,973.623 1095.5,972.5 Z"/></g>
<g><path style="opacity:1" fill="#d34157" d="M 323.5,974.5 C 326.527,976.86 329.194,979.527 331.5,982.5C 330.833,982.5 330.167,982.5 329.5,982.5C 327.208,981.21 325.208,979.543 323.5,977.5C 323.5,976.5 323.5,975.5 323.5,974.5 Z"/></g>
<g><path style="opacity:1" fill="#f9c2c2" d="M 1036.5,980.5 C 1036.5,981.833 1037.17,982.5 1038.5,982.5C 1037.52,985.325 1035.52,986.658 1032.5,986.5C 1032.35,983.465 1033.68,981.465 1036.5,980.5 Z"/></g>
<g><path style="opacity:1" fill="#d290a0" d="M 329.5,982.5 C 330.167,982.5 330.833,982.5 331.5,982.5C 333.833,984.167 335.833,986.167 337.5,988.5C 337.5,988.833 337.5,989.167 337.5,989.5C 334.21,987.876 331.543,985.543 329.5,982.5 Z"/></g>
<g><path style="opacity:1" fill="#695594" d="M 518.5,980.5 C 516.472,983.897 514.972,987.564 514,991.5C 513.658,989.381 512.825,989.047 511.5,990.5C 513.062,986.608 515.395,983.275 518.5,980.5 Z"/></g>
<g><path style="opacity:1" fill="#d17083" d="M 1084.5,984.5 C 1080.5,988.833 1076.17,992.833 1071.5,996.5C 1071.5,995.833 1071.5,995.167 1071.5,994.5C 1074.94,991.565 1078.27,988.399 1081.5,985C 1082.45,984.517 1083.45,984.351 1084.5,984.5 Z"/></g>
<g><path style="opacity:1" fill="#f9c9c9" d="M 396.5,987.5 C 395.052,991.182 395.719,994.515 398.5,997.5C 397.167,998.833 395.833,998.833 394.5,997.5C 392.173,995.839 390.173,993.839 388.5,991.5C 390.607,991.722 392.274,992.722 393.5,994.5C 393.938,991.705 394.938,989.372 396.5,987.5 Z"/></g>
<g><path style="opacity:1" fill="#618cc2" d="M 784.5,997.5 C 784.5,998.5 784.5,999.5 784.5,1000.5C 782.265,1000.79 780.265,1000.46 778.5,999.5C 780.114,997.925 782.114,997.259 784.5,997.5 Z"/></g>
<g><path style="opacity:1" fill="#879fcb" d="M 641.5,999.5 C 643.292,999.366 644.958,999.699 646.5,1000.5C 644.958,999.699 643.292,999.366 641.5,999.5 Z"/></g>
<g><path style="opacity:1" fill="#6790c2" d="M 763.5,1000.5 C 763.5,1001.5 763.5,1002.5 763.5,1003.5C 760.615,1003.81 757.948,1003.47 755.5,1002.5C 758.167,1001.83 760.833,1001.17 763.5,1000.5 Z"/></g>
<g><path style="opacity:1" fill="#7698c6" d="M 666.5,1002.5 C 670.335,1002.42 674.002,1003.08 677.5,1004.5C 674.038,1005.48 670.371,1005.81 666.5,1005.5C 666.5,1004.5 666.5,1003.5 666.5,1002.5 Z"/></g>
<g><path style="opacity:1" fill="#d63a4f" d="M 1071.5,994.5 C 1071.5,995.167 1071.5,995.833 1071.5,996.5C 1064.54,1002.65 1057.2,1008.31 1049.5,1013.5C 1048.83,1013.5 1048.17,1013.5 1047.5,1013.5C 1055.1,1006.7 1063.1,1000.36 1071.5,994.5 Z"/></g>
<g><path style="opacity:1" fill="#5f8ec3" d="M 748.5,1002.5 C 748.5,1003.5 748.5,1004.5 748.5,1005.5C 744.958,1005.81 741.625,1005.48 738.5,1004.5C 741.679,1003.21 745.012,1002.54 748.5,1002.5 Z"/></g>
<g><path style="opacity:1" fill="#6b92c2" d="M 690.5,1004.5 C 702.167,1004.5 713.833,1004.5 725.5,1004.5C 720.04,1005.83 714.207,1006.5 708,1006.5C 701.793,1006.5 695.96,1005.83 690.5,1004.5 Z"/></g>
<g><path style="opacity:1" fill="#d23a52" d="M 337.5,988.5 C 346.873,996.177 356.206,1003.84 365.5,1011.5C 364.833,1011.5 364.5,1011.83 364.5,1012.5C 356.888,1007.22 349.555,1001.56 342.5,995.5C 340.758,993.437 339.091,991.437 337.5,989.5C 337.5,989.167 337.5,988.833 337.5,988.5 Z"/></g>
<g><path style="opacity:1" fill="#c76880" d="M 365.5,1011.5 C 369.817,1014.49 373.817,1017.82 377.5,1021.5C 372.364,1019.7 368.03,1016.7 364.5,1012.5C 364.5,1011.83 364.833,1011.5 365.5,1011.5 Z"/></g>
<g><path style="opacity:1" fill="#f0f2f6" d="M 620.5,1021.5 C 619.054,1020.39 617.387,1020.22 615.5,1021C 614.966,1027.22 615.799,1033.39 618,1039.5C 619.582,1043.21 621.082,1046.87 622.5,1050.5C 623.369,1052.72 623.702,1055.05 623.5,1057.5C 625.76,1056.86 627.76,1055.69 629.5,1054C 636.031,1047.13 642.864,1040.63 650,1034.5C 650.667,1032.83 650.667,1031.17 650,1029.5C 647.711,1027.61 645.211,1026.11 642.5,1025C 649.961,1025.2 657.295,1026.36 664.5,1028.5C 665.718,1029.16 667.051,1029.83 668.5,1030.5C 666.369,1031.17 664.369,1031.84 662.5,1032.5C 661.29,1032.93 660.29,1033.6 659.5,1034.5C 654.601,1037.46 650.268,1041.12 646.5,1045.5C 635.37,1055.46 624.37,1065.63 613.5,1076C 609.833,1078.5 606.167,1081 602.5,1083.5C 595.002,1085.3 588.169,1083.96 582,1079.5C 579.395,1073.93 580.562,1069.43 585.5,1066C 587.712,1065.21 589.712,1065.38 591.5,1066.5C 592.209,1067.4 593.209,1067.74 594.5,1067.5C 594.899,1071.01 595.566,1074.34 596.5,1077.5C 607.471,1078.14 610.804,1073.14 606.5,1062.5C 604.962,1054.67 602.962,1047 600.5,1039.5C 599.999,1037.34 598.999,1035.68 597.5,1034.5C 595.928,1029.61 594.428,1024.61 593,1019.5C 590.58,1016.57 587.747,1014.24 584.5,1012.5C 585.167,1012.17 585.833,1011.83 586.5,1011.5C 598.155,1013.99 609.822,1016.49 621.5,1019C 624.051,1020.52 623.718,1021.35 620.5,1021.5 Z"/></g>
<g><path style="opacity:1" fill="#d07688" d="M 1047.5,1013.5 C 1048.17,1013.5 1048.83,1013.5 1049.5,1013.5C 1046.98,1017.11 1043.64,1019.77 1039.5,1021.5C 1041.7,1018.39 1044.37,1015.73 1047.5,1013.5 Z"/></g>
<g><path style="opacity:1" fill="#a8bedc" d="M 810.5,1023.5 C 802.613,1021.86 794.613,1021.2 786.5,1021.5C 794.808,1018.37 802.808,1019.04 810.5,1023.5 Z"/></g>
<g><path style="opacity:1" fill="#f1f3f6" d="M 786.5,1021.5 C 794.613,1021.2 802.613,1021.86 810.5,1023.5C 818.977,1028.1 821.144,1034.76 817,1043.5C 814.651,1046.02 812.151,1048.35 809.5,1050.5C 819.234,1050.24 827.4,1053.57 834,1060.5C 838.265,1068.68 836.765,1075.68 829.5,1081.5C 821.804,1086.4 813.471,1089.73 804.5,1091.5C 799.482,1091.39 794.482,1091.05 789.5,1090.5C 787.559,1090.13 785.725,1089.46 784,1088.5C 783.316,1087.22 783.483,1086.05 784.5,1085C 788.471,1086.19 792.638,1087.03 797,1087.5C 803.222,1087.7 808.555,1085.7 813,1081.5C 816.985,1074.23 815.818,1067.9 809.5,1062.5C 805.462,1058.61 800.796,1057.61 795.5,1059.5C 792.833,1059.83 790.167,1060.17 787.5,1060.5C 787.5,1059.17 787.5,1057.83 787.5,1056.5C 790.496,1055.73 793.163,1054.4 795.5,1052.5C 798.748,1051.07 800.081,1048.57 799.5,1045C 798.718,1032.21 792.051,1026.88 779.5,1029C 777.676,1029.66 776.343,1030.83 775.5,1032.5C 774.542,1032.95 773.708,1033.62 773,1034.5C 772.19,1038.36 772.357,1042.02 773.5,1045.5C 773.719,1049.53 772.552,1050.19 770,1047.5C 767.727,1041.07 765.227,1034.73 762.5,1028.5C 765.001,1029.83 767.668,1030.33 770.5,1030C 775.525,1026.32 780.858,1023.49 786.5,1021.5 Z"/></g>
<g><path style="opacity:1" fill="#d53e55" d="M 1036.5,1023.5 C 1035.45,1024.88 1034.12,1025.88 1032.5,1026.5C 1031.83,1026.5 1031.17,1026.5 1030.5,1026.5C 1032.12,1025.22 1033.79,1023.89 1035.5,1022.5C 1036.11,1022.62 1036.44,1022.96 1036.5,1023.5 Z"/></g>
<g><path style="opacity:1" fill="#d16071" d="M 409.5,1044.5 C 399.372,1038.42 389.705,1031.75 380.5,1024.5C 380.369,1023.76 380.536,1023.09 381,1022.5C 389.327,1028.51 397.827,1034.34 406.5,1040C 408.439,1040.91 409.439,1042.41 409.5,1044.5 Z"/></g>
<g><path style="opacity:1" fill="#ce798b" d="M 1030.5,1026.5 C 1031.17,1026.5 1031.83,1026.5 1032.5,1026.5C 1030.86,1028.51 1028.86,1030.18 1026.5,1031.5C 1026.77,1029.02 1028.11,1027.35 1030.5,1026.5 Z"/></g>
<g><path style="opacity:1" fill="#7ea8d1" d="M 664.5,1028.5 C 666.167,1028.5 667.833,1028.5 669.5,1028.5C 669.5,1029.83 669.5,1031.17 669.5,1032.5C 667.167,1032.5 664.833,1032.5 662.5,1032.5C 664.369,1031.84 666.369,1031.17 668.5,1030.5C 667.051,1029.83 665.718,1029.16 664.5,1028.5 Z"/></g>
<g><path style="opacity:1" fill="#d17484" d="M 1022.5,1033.5 C 1021.05,1035.61 1019.05,1036.94 1016.5,1037.5C 1017.44,1034.05 1019.44,1032.72 1022.5,1033.5 Z"/></g>
<g><path style="opacity:1" fill="#6a95c7" d="M 620.5,1021.5 C 619.167,1021.5 617.833,1021.5 616.5,1021.5C 616.335,1024.85 616.502,1028.18 617,1031.5C 619.75,1037.54 621.583,1043.87 622.5,1050.5C 621.082,1046.87 619.582,1043.21 618,1039.5C 615.799,1033.39 614.966,1027.22 615.5,1021C 617.387,1020.22 619.054,1020.39 620.5,1021.5 Z"/></g>
<g><path style="opacity:1" fill="#88aed2" d="M 775.5,1032.5 C 773.722,1036.57 773.055,1040.9 773.5,1045.5C 772.357,1042.02 772.19,1038.36 773,1034.5C 773.708,1033.62 774.542,1032.95 775.5,1032.5 Z"/></g>
<g><path style="opacity:1" fill="#d27383" d="M 1013.5,1039.5 C 1012.1,1040.89 1010.43,1041.89 1008.5,1042.5C 1008.41,1041.5 1008.75,1040.67 1009.5,1040C 1010.95,1038.7 1012.28,1038.54 1013.5,1039.5 Z"/></g>
<g><path style="opacity:1" fill="#6190c3" d="M 659.5,1034.5 C 655.732,1038.88 651.399,1042.54 646.5,1045.5C 650.268,1041.12 654.601,1037.46 659.5,1034.5 Z"/></g>
<g><path style="opacity:1" fill="#cf7d91" d="M 416.5,1048.5 C 414.06,1047.76 412.06,1046.43 410.5,1044.5C 413.561,1043.72 415.561,1045.05 416.5,1048.5 Z"/></g>
<g><path style="opacity:1" fill="#ce7c8d" d="M 1005.5,1044.5 C 1004.45,1045.88 1003.12,1046.88 1001.5,1047.5C 1001.69,1044.43 1003.03,1043.43 1005.5,1044.5 Z"/></g>
<g><path style="opacity:1" fill="#cb7e91" d="M 422.5,1051.5 C 421.005,1051.01 419.671,1050.34 418.5,1049.5C 419.313,1048.35 420.313,1048.35 421.5,1049.5C 422.298,1049.96 422.631,1050.62 422.5,1051.5 Z"/></g>
<g><path style="opacity:1" fill="#d18596" d="M 997.5,1049.5 C 996.329,1050.34 994.995,1051.01 993.5,1051.5C 993.787,1049.88 994.787,1048.88 996.5,1048.5C 997.107,1048.62 997.44,1048.96 997.5,1049.5 Z"/></g>
<g><path style="opacity:1" fill="#d07080" d="M 428.5,1055.5 C 427.167,1054.83 425.833,1054.17 424.5,1053.5C 424.369,1052.62 424.702,1051.96 425.5,1051.5C 427.55,1052.08 428.55,1053.41 428.5,1055.5 Z"/></g>
<g><path style="opacity:1" fill="#c4d1e5" d="M 597.5,1034.5 C 598.999,1035.68 599.999,1037.34 600.5,1039.5C 602.962,1047 604.962,1054.67 606.5,1062.5C 602.69,1053.59 599.69,1044.26 597.5,1034.5 Z"/></g>
<g><path style="opacity:1" fill="#7a4d85" d="M 468.5,1052.5 C 467.544,1055.44 465.877,1057.77 463.5,1059.5C 464.433,1056.63 466.1,1054.3 468.5,1052.5 Z"/></g>
<g><path style="opacity:1" fill="#6c96c8" d="M 795.5,1052.5 C 793.163,1054.4 790.496,1055.73 787.5,1056.5C 787.5,1057.83 787.5,1059.17 787.5,1060.5C 790.167,1060.17 792.833,1059.83 795.5,1059.5C 793.012,1061.39 790.012,1062.05 786.5,1061.5C 786.5,1059.5 786.5,1057.5 786.5,1055.5C 789.381,1054.32 792.381,1053.32 795.5,1052.5 Z"/></g>
<g><path style="opacity:1" fill="#d88d9a" d="M 991.5,1053.5 C 990.167,1054.17 988.833,1054.83 987.5,1055.5C 987.712,1053.62 988.712,1052.28 990.5,1051.5C 991.298,1051.96 991.631,1052.62 991.5,1053.5 Z"/></g>
<g><path style="opacity:1" fill="#ce677a" d="M 434.5,1058.5 C 433.167,1057.83 431.833,1057.17 430.5,1056.5C 430.369,1055.76 430.536,1055.09 431,1054.5C 433.071,1055.1 434.238,1056.44 434.5,1058.5 Z"/></g>
<g><path style="opacity:1" fill="#cf6376" d="M 440.5,1061.5 C 438.326,1061.25 436.659,1060.25 435.5,1058.5C 435.897,1057.47 436.563,1057.31 437.5,1058C 439.063,1058.76 440.063,1059.93 440.5,1061.5 Z"/></g>
<g><path style="opacity:1" fill="#a8c0dc" d="M 795.5,1059.5 C 800.796,1057.61 805.462,1058.61 809.5,1062.5C 807.287,1062.15 805.287,1061.32 803.5,1060C 800.854,1059.5 798.187,1059.34 795.5,1059.5 Z"/></g>
<g><path style="opacity:1" fill="#d1687a" d="M 449.5,1066.5 C 446.764,1064.8 443.764,1063.64 440.5,1063C 441.056,1062.62 441.389,1062.12 441.5,1061.5C 441.56,1060.96 441.893,1060.62 442.5,1060.5C 444.415,1062.47 446.749,1063.47 449.5,1063.5C 449.5,1064.5 449.5,1065.5 449.5,1066.5 Z"/></g>
<g><path style="opacity:1" fill="#d76d7b" d="M 980.5,1058.5 C 976.226,1061.79 971.559,1064.46 966.5,1066.5C 966.5,1065.5 966.5,1064.5 966.5,1063.5C 971.115,1062.21 975.448,1060.21 979.5,1057.5C 980.107,1057.62 980.44,1057.96 980.5,1058.5 Z"/></g>
<g><path style="opacity:1" fill="#d36173" d="M 965.5,1066.5 C 963.396,1067.91 961.063,1068.91 958.5,1069.5C 958.5,1068.83 958.5,1068.17 958.5,1067.5C 960.677,1067.41 962.677,1066.75 964.5,1065.5C 965.107,1065.62 965.44,1065.96 965.5,1066.5 Z"/></g>
<g><path style="opacity:1" fill="#d2576a" d="M 457.5,1067.5 C 457.5,1068.17 457.5,1068.83 457.5,1069.5C 455.315,1069.3 453.315,1068.63 451.5,1067.5C 451.369,1066.76 451.536,1066.09 452,1065.5C 453.725,1066.46 455.559,1067.13 457.5,1067.5 Z"/></g>
<g><path style="opacity:1" fill="#7f9fcb" d="M 591.5,1066.5 C 592.833,1066.5 594.167,1066.5 595.5,1066.5C 596.244,1070.12 596.577,1073.79 596.5,1077.5C 595.566,1074.34 594.899,1071.01 594.5,1067.5C 593.209,1067.74 592.209,1067.4 591.5,1066.5 Z"/></g>
<g><path style="opacity:1" fill="#6b92c4" d="M 938.5,1079.5 C 934.945,1081.11 931.278,1082.44 927.5,1083.5C 928.924,1081.85 930.757,1080.51 933,1079.5C 934.997,1078.34 936.831,1078.34 938.5,1079.5 Z"/></g>
<g><path style="opacity:1" fill="#7597c7" d="M 489.5,1083.5 C 492.899,1084.02 496.232,1084.85 499.5,1086C 500.252,1086.67 500.586,1087.5 500.5,1088.5C 496.376,1087.6 492.709,1085.93 489.5,1083.5 Z"/></g>
<g><path style="opacity:1" fill="#97b0d4" d="M 789.5,1090.5 C 794.482,1091.05 799.482,1091.39 804.5,1091.5C 802.866,1092.16 801.033,1092.49 799,1092.5C 795.549,1092.58 792.382,1091.91 789.5,1090.5 Z"/></g>
<g><path style="opacity:1" fill="#a9bad7" d="M 870.5,1102.5 C 869.71,1103.4 868.71,1104.07 867.5,1104.5C 867.821,1102.95 868.821,1102.29 870.5,1102.5 Z"/></g>
<g><path style="opacity:1" fill="#aebed9" d="M 822.5,1114.5 C 822.158,1115.34 821.492,1115.67 820.5,1115.5C 820.711,1113.58 821.377,1113.24 822.5,1114.5 Z"/></g>
<g><path style="opacity:1" fill="#829fc9" d="M 815.5,1115.5 C 814.18,1116.94 812.514,1117.61 810.5,1117.5C 810.5,1116.5 810.5,1115.5 810.5,1114.5C 812.415,1114.22 814.081,1114.55 815.5,1115.5 Z"/></g>
<g><path style="opacity:1" fill="#8ea7cd" d="M 805.5,1117.5 C 803.958,1118.3 802.292,1118.63 800.5,1118.5C 800.791,1117.35 801.624,1116.68 803,1116.5C 804.07,1116.53 804.903,1116.86 805.5,1117.5 Z"/></g>
<g><path style="opacity:1" fill="#6f95c6" d="M 626.5,1120.5 C 623.848,1120.59 621.515,1119.92 619.5,1118.5C 620.946,1117.39 622.613,1117.22 624.5,1118C 625.756,1118.42 626.423,1119.25 626.5,1120.5 Z"/></g>
<g><path style="opacity:1" fill="#799cc9" d="M 631.5,1120.5 C 633.607,1119.53 635.941,1119.2 638.5,1119.5C 638.5,1120.5 638.5,1121.5 638.5,1122.5C 635.143,1122.77 632.809,1122.1 631.5,1120.5 Z"/></g>
<g><path style="opacity:1" fill="#7a9dca" d="M 784.5,1120.5 C 783.191,1122.1 780.857,1122.77 777.5,1122.5C 777.5,1121.5 777.5,1120.5 777.5,1119.5C 780.059,1119.2 782.393,1119.53 784.5,1120.5 Z"/></g>
<g><path style="opacity:1" fill="#688fc3" d="M 796.5,1118.5 C 794.087,1120.05 791.421,1120.72 788.5,1120.5C 788.414,1119.5 788.748,1118.67 789.5,1118C 792.039,1117.2 794.372,1117.37 796.5,1118.5 Z"/></g>
<g><path style="opacity:1" fill="#819ec9" d="M 647.5,1122.5 C 648.449,1121.85 649.615,1121.51 651,1121.5C 652.681,1121.61 653.848,1122.27 654.5,1123.5C 652.097,1123.55 649.764,1123.22 647.5,1122.5 Z"/></g>
<g><path style="opacity:1" fill="#5f8ec3" d="M 678.5,1124.5 C 673.305,1124.82 668.305,1124.49 663.5,1123.5C 666.08,1122.88 668.747,1122.55 671.5,1122.5C 674.269,1122.53 676.603,1123.2 678.5,1124.5 Z"/></g>
<g><path style="opacity:1" fill="#6e99c8" d="M 752.5,1123.5 C 747.695,1124.49 742.695,1124.82 737.5,1124.5C 739.397,1123.2 741.731,1122.53 744.5,1122.5C 747.253,1122.55 749.92,1122.88 752.5,1123.5 Z"/></g>
</svg>
