<?xml version="1.0" encoding="UTF-8"?>
<!DOCTYPE svg PUBLIC "-//W3C//DTD SVG 1.1//EN" "http://www.w3.org/Graphics/SVG/1.1/DTD/svg11.dtd">
<svg xmlns="http://www.w3.org/2000/svg" version="1.1" width="149px" height="104px" style="shape-rendering:geometricPrecision; text-rendering:geometricPrecision; image-rendering:optimizeQuality; fill-rule:evenodd; clip-rule:evenodd" xmlns:xlink="http://www.w3.org/1999/xlink">
<g><path style="opacity:1" fill="#f9faf9" d="M 65.5,-0.5 C 71.1667,-0.5 76.8333,-0.5 82.5,-0.5C 101.441,8.056 107.941,22.3893 102,42.5C 90.1367,60.6741 74.6367,64.5074 55.5,54C 42.4918,42.1537 39.9918,28.3204 48,12.5C 52.7781,6.54955 58.6115,2.21622 65.5,-0.5 Z M 86.5,16.5 C 66.0758,15.4249 55.9091,25.0916 56,45.5C 46.6364,32.368 47.8031,20.2013 59.5,9C 65.6363,5.18076 72.3029,3.84743 79.5,5C 84.475,7.10015 86.8084,10.9335 86.5,16.5 Z M 91.5,12.5 C 96.132,16.6973 98.4653,22.0307 98.5,28.5C 95.6599,47.9225 84.6599,55.4225 65.5,51C 63.6118,48.2255 62.2784,45.2255 61.5,42C 79.079,43.4262 89.4123,35.4262 92.5,18C 91.7665,16.2341 91.4332,14.4008 91.5,12.5 Z M 79.5,20.5 C 82.0588,20.3896 84.3921,21.0562 86.5,22.5C 82.4152,33.2645 74.7485,37.5978 63.5,35.5C 62.9434,31.7524 64.2767,28.5857 67.5,26C 71.2273,23.2986 75.2273,21.4653 79.5,20.5 Z"/></g>
<g><path style="opacity:1" fill="#f9faf9" d="M 98.5,50.5 C 103.288,51.123 105.121,53.7897 104,58.5C 100.066,61.1308 97.233,60.1308 95.5,55.5C 96.0924,53.5775 97.0924,51.9108 98.5,50.5 Z"/></g>
<g><path style="opacity:1" fill="#f9faf9" d="M 148.5,70.5 C 148.5,71.5 148.5,72.5 148.5,73.5C 147.883,73.6107 147.383,73.944 147,74.5C 146.333,78.8333 146.333,83.1667 147,87.5C 147.383,88.056 147.883,88.3893 148.5,88.5C 148.5,90.5 148.5,92.5 148.5,94.5C 132.922,94.8244 117.422,94.491 102,93.5C 101.517,94.448 101.351,95.448 101.5,96.5C 102.5,96.5 103.5,96.5 104.5,96.5C 104.702,98.9496 104.369,101.283 103.5,103.5C 102.5,103.5 101.5,103.5 100.5,103.5C 100.808,101.076 100.474,98.7427 99.5,96.5C 98.4249,98.8111 98.4249,101.144 99.5,103.5C 97.5,103.5 95.5,103.5 93.5,103.5C 93.6997,100.614 94.6997,98.114 96.5,96C 95.1068,94.8289 94.2735,93.3289 94,91.5C 93.5172,92.448 93.3505,93.448 93.5,94.5C 62.1667,94.5 30.8333,94.5 -0.5,94.5C -0.5,87.1667 -0.5,79.8333 -0.5,72.5C 0.28913,72.2172 0.955796,71.7172 1.5,71C 9.16667,70.3333 16.8333,70.3333 24.5,71C 25,71.5 25.5,72 26,72.5C 30.2406,69.9493 34.5739,69.9493 39,72.5C 39.6667,85.8333 40.3333,85.8333 41,72.5C 41.5,72 42,71.5 42.5,71C 47.9921,70.7539 53.3255,70.5872 58.5,70.5C 58.736,68.0268 60.0693,66.3601 62.5,65.5C 65.1531,66.285 65.8198,67.785 64.5,70C 66.1012,70.2734 67.6012,70.7734 69,71.5C 73.4244,71.7546 77.9244,71.4213 82.5,70.5C 82.6662,76.5092 82.4995,82.5092 82,88.5C 81.5,89.6667 80.6667,90.5 79.5,91C 83.1667,91.6667 86.8333,91.6667 90.5,91C 89.6667,90.1667 88.8333,89.3333 88,88.5C 87.5005,82.5092 87.3338,76.5092 87.5,70.5C 90.0444,70.1043 92.2111,70.771 94,72.5C 96.718,69.9299 99.3847,69.9299 102,72.5C 102.839,71.3759 104.006,70.7092 105.5,70.5C 108.687,70.9931 112.021,70.9931 115.5,70.5C 115.459,74.2434 116.126,74.4101 117.5,71C 119.167,70.8333 120.833,70.6667 122.5,70.5C 125.011,70.288 127.178,70.9546 129,72.5C 129.05,78.01 129.717,83.3433 131,88.5C 133.056,85.6164 132.889,82.7831 130.5,80C 131.388,78.7803 132.055,77.4469 132.5,76C 131.622,74.1999 130.955,72.3666 130.5,70.5C 134.287,69.8144 137.454,70.8144 140,73.5C 140.374,72.5838 140.874,71.7504 141.5,71C 143.81,70.5034 146.143,70.3367 148.5,70.5 Z M 25.5,83.5 C 26.4731,85.9479 26.8064,88.6146 26.5,91.5C 23.4816,91.6646 20.4816,91.498 17.5,91C 19.0993,89.2137 19.9326,87.047 20,84.5C 21.9959,85.3411 23.8292,85.0077 25.5,83.5 Z M 74.5,83.5 C 75.4731,85.9479 75.8064,88.6146 75.5,91.5C 74.448,91.6495 73.448,91.4828 72.5,91C 74.291,88.8938 74.9577,86.3938 74.5,83.5 Z M 46.5,87.5 C 47.4345,88.5676 47.7678,89.901 47.5,91.5C 46.448,91.6495 45.448,91.4828 44.5,91C 45.9733,90.2904 46.6399,89.1238 46.5,87.5 Z M 139.5,87.5 C 143.599,91.2713 142.599,92.4379 136.5,91C 138.426,90.5776 139.426,89.4109 139.5,87.5 Z M 39.5,88.5 C 40.404,89.209 40.7373,90.209 40.5,91.5C 39.448,91.6495 38.448,91.4828 37.5,91C 38.3805,90.2917 39.0472,89.4584 39.5,88.5 Z M 54.5,88.5 C 58.073,91.4029 57.073,92.2363 51.5,91C 52.9423,90.6232 53.9423,89.7899 54.5,88.5 Z M 5.5,89.5 C 6.04309,89.56 6.37642,89.8933 6.5,90.5C 5.63505,91.5827 4.63505,91.7494 3.5,91C 4.4158,90.7216 5.08247,90.2216 5.5,89.5 Z M 12.5,89.5 C 13.0431,89.56 13.3764,89.8933 13.5,90.5C 12.635,91.5827 11.635,91.7494 10.5,91C 11.4158,90.7216 12.0825,90.2216 12.5,89.5 Z M 107.5,89.5 C 108.043,89.56 108.376,89.8933 108.5,90.5C 107.635,91.5827 106.635,91.7494 105.5,91C 106.416,90.7216 107.082,90.2216 107.5,89.5 Z"/></g>
<g><path style="opacity:1" fill="#f9faf9" d="M 86.5,103.5 C 85.5,103.5 84.5,103.5 83.5,103.5C 82.8333,102.167 82.1667,102.167 81.5,103.5C 81.1667,103.5 80.8333,103.5 80.5,103.5C 80.3367,101.143 80.5034,98.8098 81,96.5C 82.6667,95.1667 84.3333,95.1667 86,96.5C 86.4966,98.8098 86.6633,101.143 86.5,103.5 Z"/></g>
<g><path style="opacity:1" fill="#f9faf9" d="M 44.5,103.5 C 43.1667,103.5 41.8333,103.5 40.5,103.5C 39.8333,102.167 39.1667,102.167 38.5,103.5C 35.8333,103.5 33.1667,103.5 30.5,103.5C 30.2978,101.011 30.7978,98.6775 32,96.5C 32.9147,97.3279 33.5814,98.3279 34,99.5C 36.1199,95.3184 37.4532,95.6517 38,100.5C 38.6904,96.8101 40.8571,95.6434 44.5,97C 45.768,99.1632 45.768,101.33 44.5,103.5 Z M 40.5,98.5 C 41.5,98.5 42.5,98.5 43.5,98.5C 42.7542,102.31 41.7542,102.31 40.5,98.5 Z"/></g>
<g><path style="opacity:1" fill="#f9faf9" d="M 52.5,103.5 C 51.8333,103.5 51.1667,103.5 50.5,103.5C 50.719,102.325 50.3857,101.325 49.5,100.5C 49.4827,101.394 49.1494,102.394 48.5,103.5C 47.8333,103.5 47.1667,103.5 46.5,103.5C 46.5,101.167 46.5,98.8333 46.5,96.5C 47.552,96.3505 48.552,96.5172 49.5,97C 48.3044,97.6543 48.3044,98.1543 49.5,98.5C 50.1667,97.8333 50.8333,97.1667 51.5,96.5C 52.4742,98.7427 52.8076,101.076 52.5,103.5 Z"/></g>
<g><path style="opacity:1" fill="#f9faf9" d="M 65.5,101.5 C 64.5,101.833 63.8333,102.5 63.5,103.5C 62.1667,103.5 60.8333,103.5 59.5,103.5C 58.3199,101.986 57.3199,100.319 56.5,98.5C 56.0266,100.247 55.6932,101.914 55.5,103.5C 54.8333,103.5 54.1667,103.5 53.5,103.5C 53.5,101.167 53.5,98.8333 53.5,96.5C 57.0755,96.7623 60.7421,97.0957 64.5,97.5C 65.2458,98.7362 65.5792,100.07 65.5,101.5 Z M 60.5,98.5 C 63.6741,98.9522 64.0075,99.9522 61.5,101.5C 60.6143,100.675 60.281,99.675 60.5,98.5 Z"/></g>
<g><path style="opacity:1" fill="#f9faf9" d="M 71.5,103.5 C 70.8333,103.5 70.1667,103.5 69.5,103.5C 69.1667,100.833 68.8333,100.833 68.5,103.5C 67.5,103.5 66.5,103.5 65.5,103.5C 65.5,102.833 65.5,102.167 65.5,101.5C 66.4511,100.081 66.7845,98.4147 66.5,96.5C 68.1667,96.5 69.8333,96.5 71.5,96.5C 71.5,98.8333 71.5,101.167 71.5,103.5 Z"/></g>
<g><path style="opacity:1" fill="#f9faf9" d="M 78.5,103.5 C 77.8333,103.5 77.1667,103.5 76.5,103.5C 76.7529,101.173 76.0863,99.1727 74.5,97.5C 74.8333,97.1667 75.1667,96.8333 75.5,96.5C 76.5,97.8333 77.5,97.8333 78.5,96.5C 78.8333,97 79.1667,97.5 79.5,98C 78.7665,99.7659 78.4332,101.599 78.5,103.5 Z"/></g>
<g><path style="opacity:1" fill="#f9faf9" d="M 92.5,103.5 C 91.8333,103.5 91.1667,103.5 90.5,103.5C 90.1667,102.167 89.8333,102.167 89.5,103.5C 88.8333,103.5 88.1667,103.5 87.5,103.5C 88.2186,101.236 88.552,98.9029 88.5,96.5C 89.8333,96.5 91.1667,96.5 92.5,96.5C 92.5,98.8333 92.5,101.167 92.5,103.5 Z"/></g>
<g><path style="opacity:1" fill="#f9faf9" d="M 109.5,103.5 C 108.167,103.5 106.833,103.5 105.5,103.5C 106.248,101.416 106.248,99.4159 105.5,97.5C 107.353,96.2404 109.186,96.2404 111,97.5C 111.743,99.8739 111.243,101.874 109.5,103.5 Z"/></g>
<g><path style="opacity:1" fill="#f9faf9" d="M 114.5,103.5 C 113.833,103.5 113.167,103.5 112.5,103.5C 112.5,101.167 112.5,98.8333 112.5,96.5C 114.665,96.1159 116.332,96.7826 117.5,98.5C 115.703,99.6951 114.703,101.362 114.5,103.5 Z"/></g>
</svg>
